# Blender 4.1.1
# www.blender.org
mtllib DoorsStandardModel.mtl
o Cube.008
v 0.200000 0.286692 2.813308
v 0.200000 3.489880 2.813308
v -0.200000 0.278074 2.821927
v -0.200000 3.490207 2.821927
v 0.200000 0.286692 0.386692
v 0.200000 8.713307 0.386692
v -0.200000 0.278074 0.378073
v -0.200000 8.721927 0.378073
v -0.200000 0.278074 0.850000
v -0.200000 0.278074 1.600000
v -0.200000 0.278074 2.350000
v -0.200000 7.406322 2.253222
v -0.200000 8.344539 1.409331
v -0.200000 8.682473 0.789817
v 0.200000 0.286692 2.350000
v 0.200000 0.286692 1.600000
v 0.200000 0.286692 0.850000
v 0.200000 8.674016 0.787952
v 0.200000 8.338202 1.403422
v 0.200000 7.401795 2.245675
v -0.200000 0.278074 1.225000
v -0.200000 8.583032 1.094336
v 0.200000 0.286692 1.225000
v 0.200000 8.575288 1.090286
v -0.200000 0.278074 1.975000
v -0.200000 7.933765 1.767906
v 0.200000 0.286692 1.975000
v 0.200000 7.928012 1.761487
v -0.200000 0.278074 2.725000
v 0.200000 6.415609 2.590771
v -0.200000 6.417390 2.599279
v 0.200000 0.286692 2.725000
v -0.200000 8.721927 0.458502
v 0.200000 0.286692 0.475000
v -0.200000 0.278074 0.475000
v 0.200000 8.713307 0.457990
v -0.200000 3.500767 3.100000
v -0.200000 0.000000 3.100000
v -0.200000 0.000000 2.725000
v -0.200000 9.000000 0.475000
v -0.200000 9.000000 0.100000
v -0.200000 0.000000 0.100000
v -0.200000 0.000000 0.475000
v -0.200000 0.000000 0.850000
v -0.200000 0.000000 1.225000
v -0.200000 0.000000 1.600000
v -0.200000 0.000000 1.975000
v -0.200000 0.000000 2.350000
v -0.200000 6.474828 2.873787
v -0.200000 7.552358 2.496727
v -0.200000 8.119373 1.975000
v -0.200000 8.548963 1.600000
v -0.200000 8.832888 1.225000
v -0.200000 8.955345 0.850000
v -0.001681 3.490207 2.821927
v -0.001681 0.278074 2.821927
v -0.001681 0.278074 2.725000
v -0.001681 8.721927 0.458502
v -0.001681 8.721927 0.378073
v -0.001681 0.278074 0.378073
v -0.001681 0.278074 0.475000
v -0.001681 0.278074 0.850000
v -0.001681 0.278074 1.225000
v -0.001681 0.278074 1.600000
v -0.001681 0.278074 1.975000
v -0.001681 0.278074 2.350000
v -0.001681 6.417390 2.599279
v -0.001681 7.406322 2.253222
v -0.001681 7.933765 1.767906
v -0.001681 8.344539 1.409331
v -0.001681 8.583032 1.094336
v -0.001681 8.682473 0.789817
v 0.200000 4.966053 2.701027
v -0.200000 4.987797 2.986894
v -0.200000 4.953798 2.710603
v -0.001681 4.953798 2.710603
v -0.200000 5.074744 0.100000
v 0.200000 5.074744 0.386692
v -0.200000 5.074744 0.378073
v -0.001681 5.074744 0.378073
v 0.200000 0.286692 -2.813308
v 0.200000 3.489880 -2.813308
v -0.200000 0.278074 -2.821927
v -0.200000 3.490207 -2.821927
v 0.200000 0.286692 -0.386692
v 0.200000 8.713307 -0.386692
v -0.200000 0.278074 -0.378073
v -0.200000 8.721927 -0.378073
v -0.200000 0.278074 -0.850000
v -0.200000 0.278074 -1.600000
v -0.200000 0.278074 -2.350000
v -0.200000 7.406322 -2.253222
v -0.200000 8.344539 -1.409331
v -0.200000 8.682473 -0.789817
v 0.200000 0.286692 -2.350000
v 0.200000 0.286692 -1.600000
v 0.200000 0.286692 -0.850000
v 0.200000 8.674016 -0.787952
v 0.200000 8.338202 -1.403422
v 0.200000 7.401795 -2.245675
v -0.200000 0.278074 -1.225000
v -0.200000 8.583032 -1.094336
v 0.200000 0.286692 -1.225000
v 0.200000 8.575288 -1.090286
v -0.200000 0.278074 -1.975000
v -0.200000 7.933765 -1.767906
v 0.200000 0.286692 -1.975000
v 0.200000 7.928013 -1.761488
v -0.200000 0.278074 -2.725000
v 0.200000 6.415609 -2.590771
v -0.200000 6.417390 -2.599279
v 0.200000 0.286692 -2.725000
v -0.200000 8.721927 -0.458502
v 0.200000 0.286692 -0.475000
v -0.200000 0.278074 -0.475000
v 0.200000 8.713307 -0.457990
v -0.200000 3.500767 -3.100000
v -0.200000 0.000000 -3.100000
v -0.200000 0.000000 -2.725000
v -0.200000 9.000000 -0.475000
v -0.200000 9.000000 -0.100000
v -0.200000 0.000000 -0.100000
v -0.200000 0.000000 -0.475000
v -0.200000 0.000000 -0.850000
v -0.200000 0.000000 -1.225000
v -0.200000 0.000000 -1.600000
v -0.200000 0.000000 -1.975000
v -0.200000 0.000000 -2.350000
v -0.200000 6.474828 -2.873787
v -0.200000 7.552358 -2.496727
v -0.200000 8.119373 -1.975000
v -0.200000 8.548963 -1.600000
v -0.200000 8.832888 -1.225000
v -0.200000 8.955345 -0.850000
v -0.001681 3.490207 -2.821927
v -0.001681 0.278074 -2.821927
v -0.001681 0.278074 -2.725000
v -0.001681 8.721927 -0.458502
v -0.001681 8.721927 -0.378073
v -0.001681 0.278074 -0.378073
v -0.001681 0.278074 -0.475000
v -0.001681 0.278074 -0.850000
v -0.001681 0.278074 -1.225000
v -0.001681 0.278074 -1.600000
v -0.001681 0.278074 -1.975000
v -0.001681 0.278074 -2.350000
v -0.001681 6.417390 -2.599279
v -0.001681 7.406322 -2.253222
v -0.001681 7.933765 -1.767906
v -0.001681 8.344539 -1.409331
v -0.001681 8.583032 -1.094337
v -0.001681 8.682473 -0.789817
v 0.200000 4.966054 -2.701027
v -0.200000 4.987797 -2.986894
v -0.200000 4.953798 -2.710603
v -0.001681 4.953798 -2.710603
v -0.200000 5.074744 -0.100000
v 0.200000 5.074744 -0.386692
v -0.200000 5.074744 -0.378073
v -0.001681 5.074744 -0.378073
v 0.200000 0.000000 3.100000
v 0.200000 3.500767 3.100000
v 0.200000 5.074744 0.100000
v 0.200000 0.000000 0.100000
v 0.200000 0.000000 0.475000
v 0.200000 4.987797 2.986894
v 0.200000 0.000000 2.725000
v 0.200000 0.000000 2.350000
v 0.200000 0.000000 1.975000
v 0.200000 0.000000 1.600000
v 0.200000 0.000000 1.225000
v 0.200000 0.000000 0.850000
v 0.200000 9.000000 0.475000
v 0.200000 8.955345 0.850000
v 0.200000 8.832888 1.225000
v 0.200000 8.548963 1.600000
v 0.200000 8.119373 1.975000
v 0.200000 7.552358 2.496727
v 0.200000 6.474828 2.873787
v 0.200000 9.000000 0.100000
v 0.200000 0.000000 -3.100000
v 0.200000 3.500767 -3.100000
v 0.200000 5.074744 -0.100000
v 0.200000 0.000000 -0.100000
v 0.200000 0.000000 -0.475000
v 0.200000 4.987797 -2.986894
v 0.200000 0.000000 -2.725000
v 0.200000 0.000000 -2.350000
v 0.200000 0.000000 -1.975000
v 0.200000 0.000000 -1.600000
v 0.200000 0.000000 -1.225000
v 0.200000 0.000000 -0.850000
v 0.200000 9.000000 -0.475000
v 0.200000 8.955345 -0.850000
v 0.200000 8.832888 -1.225000
v 0.200000 8.548963 -1.600000
v 0.200000 8.119373 -1.975000
v 0.200000 7.552358 -2.496727
v 0.200000 6.474828 -2.873787
v 0.200000 9.000000 -0.100000
v 0.022434 0.286692 2.813308
v 0.022434 3.489880 2.813308
v 0.022434 5.074744 0.386692
v 0.022434 0.286692 0.386692
v 0.022434 0.286692 0.475000
v 0.022434 4.966053 2.701027
v 0.022434 0.286692 2.725000
v 0.022434 0.286692 2.350000
v 0.022434 0.286692 1.975000
v 0.022434 0.286692 1.600000
v 0.022434 0.286692 1.225000
v 0.022434 0.286692 0.850000
v 0.022434 8.713307 0.457990
v 0.022434 8.674016 0.787952
v 0.022434 8.575288 1.090286
v 0.022434 8.338202 1.403422
v 0.022434 7.928012 1.761487
v 0.022434 7.401795 2.245675
v 0.022434 6.415609 2.590771
v 0.022434 8.713307 0.386692
v 0.022434 0.286692 -2.813308
v 0.022434 3.489880 -2.813308
v 0.022434 5.074744 -0.386692
v 0.022434 0.286692 -0.386692
v 0.022434 0.286692 -0.475000
v 0.022434 4.966054 -2.701027
v 0.022434 0.286692 -2.725000
v 0.022434 0.286692 -2.350000
v 0.022434 0.286692 -1.975000
v 0.022434 0.286692 -1.600000
v 0.022434 0.286692 -1.225000
v 0.022434 0.286692 -0.850000
v 0.022434 8.713307 -0.457990
v 0.022434 8.674016 -0.787952
v 0.022434 8.575288 -1.090286
v 0.022434 8.338202 -1.403422
v 0.022434 7.928013 -1.761488
v 0.022434 7.401795 -2.245675
v 0.022434 6.415609 -2.590771
v 0.022434 8.713307 -0.386692
vn -0.0000 -0.0000 1.0000
vn -0.0000 -0.0000 -1.0000
vn -0.0000 -1.0000 -0.0000
vn -0.0000 0.0758 0.9971
vn -0.0000 0.9930 0.1182
vn -0.0000 0.7973 0.6036
vn -0.0000 0.6771 0.7359
vn -0.0000 0.9506 0.3104
vn -0.0000 0.6576 0.7533
vn -0.0000 0.3303 0.9439
vn -0.0000 1.0000 -0.0000
vn -1.0000 -0.0000 -0.0000
vn -0.0000 -0.7973 -0.6036
vn -0.0000 -0.6771 -0.7359
vn -0.0000 -0.3303 -0.9439
vn -0.0000 -0.0758 -0.9971
vn -0.0000 -0.6576 -0.7534
vn -0.0000 -0.9930 -0.1182
vn -0.0000 -0.9506 -0.3104
vn -0.0000 0.0758 -0.9971
vn -0.0000 0.9930 -0.1182
vn -0.0000 0.7973 -0.6036
vn -0.0000 0.6771 -0.7359
vn -0.0000 0.9506 -0.3104
vn -0.0000 0.6576 -0.7534
vn -0.0000 0.3303 -0.9439
vn -0.0000 -0.7973 0.6036
vn -0.0000 -0.6771 0.7359
vn -0.0000 -0.3303 0.9439
vn -0.0000 -0.0758 0.9971
vn -0.0000 -0.6576 0.7534
vn -0.0000 -0.9930 0.1182
vn -0.0000 -0.9506 0.3104
vn 1.0000 -0.0000 -0.0000
vn -0.0000 -0.6576 0.7533
vt 0.375000 0.000000
vt 0.625000 0.000000
vt 0.625000 0.250000
vt 0.375000 0.250000
vt 0.500000 0.500000
vt 0.625000 0.500000
vt 0.625000 0.750000
vt 0.500000 0.750000
vt 0.343750 0.500000
vt 0.375000 0.500000
vt 0.375000 0.750000
vt 0.343750 0.750000
vt 0.859375 0.500000
vt 0.875000 0.500000
vt 0.875000 0.750000
vt 0.859375 0.750000
vt 0.656250 0.500000
vt 0.687500 0.500000
vt 0.687500 0.750000
vt 0.656250 0.750000
vt 0.718750 0.500000
vt 0.750000 0.500000
vt 0.750000 0.750000
vt 0.718750 0.750000
vt 0.781250 0.500000
vt 0.812500 0.500000
vt 0.812500 0.750000
vt 0.781250 0.750000
vt 0.156250 0.500000
vt 0.187500 0.500000
vt 0.187500 0.750000
vt 0.156250 0.750000
vt 0.218750 0.500000
vt 0.250000 0.500000
vt 0.250000 0.750000
vt 0.218750 0.750000
vt 0.281250 0.500000
vt 0.312500 0.500000
vt 0.312500 0.750000
vt 0.281250 0.750000
vt 0.125000 0.500000
vt 0.125000 0.750000
vt 0.843750 0.500000
vt 0.843750 0.750000
vt 0.647970 0.500000
vt 0.641069 0.500000
vt 0.803348 0.500000
vt 0.191768 0.500000
vt 0.197284 0.500000
vt 0.505610 0.500000
vt 0.336571 0.500000
vt 0.363809 0.500000
vt 0.279300 0.500000
vt 0.308032 0.500000
vt 0.222887 0.500000
vt 0.250763 0.500000
vt 0.787009 0.500000
vt 0.812047 0.500000
vt 0.726686 0.500000
vt 0.753626 0.500000
vt 0.675920 0.500000
vt 0.701366 0.500000
vt 0.807697 0.500000
vt 0.370150 0.500000
vt 0.816807 0.750000
vt 0.800569 0.750000
vt 0.336799 0.750000
vt 0.363752 0.750000
vt 0.193590 0.750000
vt 0.528210 0.750000
vt 0.369447 0.750000
vt 0.223805 0.750000
vt 0.198531 0.750000
vt 0.279860 0.750000
vt 0.251483 0.750000
vt 0.308438 0.750000
vt 0.674992 0.750000
vt 0.647023 0.750000
vt 0.725384 0.750000
vt 0.700296 0.750000
vt 0.785592 0.750000
vt 0.752119 0.750000
vt 0.810344 0.750000
vt 0.640844 0.750000
vt 0.800570 0.750000
vt 0.193590 0.750000
vt 0.369447 0.750000
vt 0.528210 0.750000
vt 0.363752 0.750000
vt 0.816807 0.750000
vt 0.198531 0.750000
vt 0.223805 0.750000
vt 0.251483 0.750000
vt 0.279860 0.750000
vt 0.308438 0.750000
vt 0.336799 0.750000
vt 0.647023 0.750000
vt 0.674992 0.750000
vt 0.700296 0.750000
vt 0.725384 0.750000
vt 0.752119 0.750000
vt 0.785592 0.750000
vt 0.810344 0.750000
vt 0.640844 0.750000
s 0
f 161/1/1 162/2/1 37/3/1 38/4/1
f 77/5/2 41/6/2 180/7/2 163/8/2
f 43/9/3 42/10/3 164/11/3 165/12/3
f 74/13/4 37/14/4 162/15/4 166/16/4
f 40/17/5 54/18/5 174/19/5 173/20/5
f 53/21/6 52/22/6 176/23/6 175/24/6
f 51/25/7 50/26/7 178/27/7 177/28/7
f 39/29/3 48/30/3 168/31/3 167/32/3
f 47/33/3 46/34/3 170/35/3 169/36/3
f 45/37/3 44/38/3 172/39/3 171/40/3
f 46/34/3 45/37/3 171/40/3 170/35/3
f 54/18/8 53/21/8 175/24/8 174/19/8
f 48/30/3 47/33/3 169/36/3 168/31/3
f 52/22/9 51/25/9 177/28/9 176/23/9
f 38/41/3 39/29/3 167/32/3 161/42/3
f 50/26/10 49/43/10 179/44/10 178/27/10
f 33/45/3 8/46/3 59/46/3 58/45/3
f 41/6/11 40/17/11 173/20/11 180/7/11
f 44/38/3 43/9/3 165/12/3 172/39/3
f 4/47/12 3/48/12 38/41/12 37/14/12
f 3/48/12 29/49/12 39/29/12 38/41/12
f 8/46/12 33/45/12 40/17/12 41/6/12
f 79/50/12 8/46/12 41/6/12 77/5/12
f 9/51/12 35/52/12 43/9/12 44/38/12
f 10/53/12 21/54/12 45/37/12 46/34/12
f 11/55/12 25/56/12 47/33/12 48/30/12
f 12/57/12 31/58/12 49/43/12 50/26/12
f 13/59/12 26/60/12 51/25/12 52/22/12
f 14/61/12 22/62/12 53/21/12 54/18/12
f 21/54/12 9/51/12 44/38/12 45/37/12
f 22/62/12 13/59/12 52/22/12 53/21/12
f 25/56/12 10/53/12 46/34/12 47/33/12
f 26/60/12 12/57/12 50/26/12 51/25/12
f 29/49/12 11/55/12 48/30/12 39/29/12
f 75/63/12 4/47/12 37/14/12 74/13/12
f 33/45/12 14/61/12 54/18/12 40/17/12
f 35/52/12 7/64/12 42/10/12 43/9/12
f 7/64/11 35/52/11 61/52/11 60/64/11
f 9/51/11 21/54/11 63/54/11 62/51/11
f 79/50/1 7/64/1 60/64/1 80/50/1
f 13/59/13 22/62/13 71/62/13 70/59/13
f 35/52/11 9/51/11 62/51/11 61/52/11
f 10/53/11 25/56/11 65/56/11 64/53/11
f 21/54/11 10/53/11 64/53/11 63/54/11
f 12/57/14 26/60/14 69/60/14 68/57/14
f 25/56/11 11/55/11 66/55/11 65/56/11
f 11/55/11 29/49/11 57/49/11 66/55/11
f 31/58/15 12/57/15 68/57/15 67/58/15
f 3/48/2 4/47/2 55/47/2 56/48/2
f 75/63/16 31/58/16 67/58/16 76/63/16
f 26/60/17 13/59/17 70/59/17 69/60/17
f 29/49/11 3/48/11 56/48/11 57/49/11
f 14/61/18 33/45/18 58/45/18 72/61/18
f 22/62/19 14/61/19 72/61/19 71/62/19
f 4/47/16 75/63/16 76/63/16 55/47/16
f 31/58/12 75/63/12 74/13/12 49/43/12
f 49/43/4 74/13/4 166/16/4 179/44/4
f 8/46/1 79/50/1 80/50/1 59/46/1
f 7/64/12 79/50/12 77/5/12 42/10/12
f 42/10/2 77/5/2 163/8/2 164/11/2
f 56/48/12 55/47/12 76/63/12 80/50/12 60/64/12 61/52/12 62/51/12 63/54/12 64/53/12 65/56/12 66/55/12 57/49/12
f 58/45/12 59/46/12 80/50/12 76/63/12 67/58/12 68/57/12 69/60/12 70/59/12 71/62/12 72/61/12
f 73/65/16 2/66/16 202/66/16 206/65/16
f 181/1/2 118/4/2 117/3/2 182/2/2
f 157/5/1 183/8/1 200/7/1 121/6/1
f 123/9/3 185/12/3 184/11/3 122/10/3
f 154/13/20 186/16/20 182/15/20 117/14/20
f 120/17/21 193/20/21 194/19/21 134/18/21
f 133/21/22 195/24/22 196/23/22 132/22/22
f 131/25/23 197/28/23 198/27/23 130/26/23
f 119/29/3 187/32/3 188/31/3 128/30/3
f 127/33/3 189/36/3 190/35/3 126/34/3
f 125/37/3 191/40/3 192/39/3 124/38/3
f 126/34/3 190/35/3 191/40/3 125/37/3
f 134/18/24 194/19/24 195/24/24 133/21/24
f 128/30/3 188/31/3 189/36/3 127/33/3
f 132/22/25 196/23/25 197/28/25 131/25/25
f 118/41/3 181/42/3 187/32/3 119/29/3
f 130/26/26 198/27/26 199/44/26 129/43/26
f 113/45/3 138/45/3 139/46/3 88/46/3
f 121/6/11 200/7/11 193/20/11 120/17/11
f 124/38/3 192/39/3 185/12/3 123/9/3
f 84/47/12 117/14/12 118/41/12 83/48/12
f 83/48/12 118/41/12 119/29/12 109/49/12
f 88/46/12 121/6/12 120/17/12 113/45/12
f 159/50/12 157/5/12 121/6/12 88/46/12
f 89/51/12 124/38/12 123/9/12 115/52/12
f 90/53/12 126/34/12 125/37/12 101/54/12
f 91/55/12 128/30/12 127/33/12 105/56/12
f 92/57/12 130/26/12 129/43/12 111/58/12
f 93/59/12 132/22/12 131/25/12 106/60/12
f 94/61/12 134/18/12 133/21/12 102/62/12
f 101/54/12 125/37/12 124/38/12 89/51/12
f 102/62/12 133/21/12 132/22/12 93/59/12
f 105/56/12 127/33/12 126/34/12 90/53/12
f 106/60/12 131/25/12 130/26/12 92/57/12
f 109/49/12 119/29/12 128/30/12 91/55/12
f 155/63/12 154/13/12 117/14/12 84/47/12
f 113/45/12 120/17/12 134/18/12 94/61/12
f 115/52/12 123/9/12 122/10/12 87/64/12
f 87/64/11 140/64/11 141/52/11 115/52/11
f 89/51/11 142/51/11 143/54/11 101/54/11
f 159/50/2 160/50/2 140/64/2 87/64/2
f 93/59/27 150/59/27 151/62/27 102/62/27
f 115/52/11 141/52/11 142/51/11 89/51/11
f 90/53/11 144/53/11 145/56/11 105/56/11
f 101/54/11 143/54/11 144/53/11 90/53/11
f 92/57/28 148/57/28 149/60/28 106/60/28
f 105/56/11 145/56/11 146/55/11 91/55/11
f 91/55/11 146/55/11 137/49/11 109/49/11
f 111/58/29 147/58/29 148/57/29 92/57/29
f 83/48/1 136/48/1 135/47/1 84/47/1
f 155/63/30 156/63/30 147/58/30 111/58/30
f 106/60/31 149/60/31 150/59/31 93/59/31
f 109/49/11 137/49/11 136/48/11 83/48/11
f 94/61/32 152/61/32 138/45/32 113/45/32
f 102/62/33 151/62/33 152/61/33 94/61/33
f 84/47/30 135/47/30 156/63/30 155/63/30
f 111/58/12 129/43/12 154/13/12 155/63/12
f 129/43/20 199/44/20 186/16/20 154/13/20
f 88/46/2 139/46/2 160/50/2 159/50/2
f 87/64/12 122/10/12 157/5/12 159/50/12
f 122/10/1 184/11/1 183/8/1 157/5/1
f 136/48/12 137/49/12 146/55/12 145/56/12 144/53/12 143/54/12 142/51/12 141/52/12 140/64/12 160/50/12 156/63/12 135/47/12
f 138/45/12 152/61/12 151/62/12 150/59/12 149/60/12 148/57/12 147/58/12 156/63/12 160/50/12 139/46/12
f 17/67/11 34/68/11 205/68/11 212/67/11
f 1/69/34 2/66/34 162/15/34 161/42/34
f 78/70/34 5/71/34 164/11/34 163/8/34
f 5/71/34 34/68/34 165/12/34 164/11/34
f 2/66/34 73/65/34 166/16/34 162/15/34
f 15/72/34 32/73/34 167/32/34 168/31/34
f 16/74/34 27/75/34 169/36/34 170/35/34
f 17/67/34 23/76/34 171/40/34 172/39/34
f 18/77/34 36/78/34 173/20/34 174/19/34
f 19/79/34 24/80/34 175/24/34 176/23/34
f 20/81/34 28/82/34 177/28/34 178/27/34
f 23/76/34 16/74/34 170/35/34 171/40/34
f 24/80/34 18/77/34 174/19/34 175/24/34
f 27/75/34 15/72/34 168/31/34 169/36/34
f 28/82/34 19/79/34 176/23/34 177/28/34
f 30/83/34 20/81/34 178/27/34 179/44/34
f 32/73/34 1/69/34 161/42/34 167/32/34
f 34/68/34 17/67/34 172/39/34 165/12/34
f 36/78/34 6/84/34 180/7/34 173/20/34
f 73/65/34 30/83/34 179/44/34 166/16/34
f 6/84/34 78/70/34 163/8/34 180/7/34
f 82/85/34 81/86/34 181/42/34 182/15/34
f 85/87/34 158/88/34 183/8/34 184/11/34
f 114/89/34 85/87/34 184/11/34 185/12/34
f 153/90/34 82/85/34 182/15/34 186/16/34
f 112/91/34 95/92/34 188/31/34 187/32/34
f 107/93/34 96/94/34 190/35/34 189/36/34
f 103/95/34 97/96/34 192/39/34 191/40/34
f 116/97/34 98/98/34 194/19/34 193/20/34
f 104/99/34 99/100/34 196/23/34 195/24/34
f 108/101/34 100/102/34 198/27/34 197/28/34
f 96/94/34 103/95/34 191/40/34 190/35/34
f 98/98/34 104/99/34 195/24/34 194/19/34
f 95/92/34 107/93/34 189/36/34 188/31/34
f 99/100/34 108/101/34 197/28/34 196/23/34
f 100/102/34 110/103/34 199/44/34 198/27/34
f 81/86/34 112/91/34 187/32/34 181/42/34
f 97/96/34 114/89/34 185/12/34 192/39/34
f 86/104/34 116/97/34 193/20/34 200/7/34
f 110/103/34 153/90/34 186/16/34 199/44/34
f 158/88/34 86/104/34 200/7/34 183/8/34
f 201/69/34 207/73/34 208/72/34 209/75/34 210/74/34 211/76/34 212/67/34 205/68/34 204/71/34 203/70/34 220/84/34 213/78/34 214/77/34 215/80/34 216/79/34 217/82/34 218/81/34 219/83/34 206/65/34 202/66/34
f 221/86/34 222/85/34 226/90/34 239/103/34 238/102/34 237/101/34 236/100/34 235/99/34 234/98/34 233/97/34 240/104/34 223/88/34 224/87/34 225/89/34 232/96/34 231/95/34 230/94/34 229/93/34 228/92/34 227/91/34
f 103/95/11 96/94/11 230/94/11 231/95/11
f 6/84/3 36/78/3 213/78/3 220/84/3
f 32/73/11 15/72/11 208/72/11 207/73/11
f 104/99/33 98/98/33 234/98/33 235/99/33
f 30/83/16 73/65/16 206/65/16 219/83/16
f 27/75/11 16/74/11 210/74/11 209/75/11
f 107/93/11 95/92/11 228/92/11 229/93/11
f 78/70/1 6/84/1 220/84/1 203/70/1
f 23/76/11 17/67/11 212/67/11 211/76/11
f 108/101/35 99/100/35 236/100/35 237/101/35
f 81/86/1 82/85/1 222/85/1 221/86/1
f 36/78/18 18/77/18 214/77/18 213/78/18
f 110/103/29 100/102/29 238/102/29 239/103/29
f 158/88/2 85/87/2 224/87/2 223/88/2
f 24/80/13 19/79/13 216/79/13 215/80/13
f 112/91/11 81/86/11 221/86/11 227/91/11
f 85/87/11 114/89/11 225/89/11 224/87/11
f 28/82/14 20/81/14 218/81/14 217/82/14
f 114/89/11 97/96/11 232/96/11 225/89/11
f 82/85/30 153/90/30 226/90/30 222/85/30
f 16/74/11 23/76/11 211/76/11 210/74/11
f 116/97/3 86/104/3 240/104/3 233/97/3
f 95/92/11 112/91/11 227/91/11 228/92/11
f 18/77/19 24/80/19 215/80/19 214/77/19
f 153/90/30 110/103/30 239/103/30 226/90/30
f 96/94/11 107/93/11 229/93/11 230/94/11
f 15/72/11 27/75/11 209/75/11 208/72/11
f 86/104/2 158/88/2 223/88/2 240/104/2
f 97/96/11 103/95/11 231/95/11 232/96/11
f 19/79/17 28/82/17 217/82/17 216/79/17
f 2/66/2 1/69/2 201/69/2 202/66/2
f 98/98/32 116/97/32 233/97/32 234/98/32
f 20/81/15 30/83/15 219/83/15 218/81/15
f 5/71/1 78/70/1 203/70/1 204/71/1
f 99/100/27 104/99/27 235/99/27 236/100/27
f 1/69/11 32/73/11 207/73/11 201/69/11
f 34/68/11 5/71/11 204/71/11 205/68/11
f 100/102/28 108/101/28 237/101/28 238/102/28
