# Blender 4.0.2
# www.blender.org
mtllib ScenePedastalModel.mtl
o Cube.012
v -0.590627 1.708543 0.590627
v -0.590627 1.708543 -0.590627
v 0.590627 1.708543 0.590627
v 0.590627 1.708543 -0.590627
v -0.762227 0.544032 -0.656350
v -0.656350 0.544032 -0.762227
v -0.656350 0.544032 0.762227
v -0.762227 0.544032 0.656350
v -1.100000 1.150000 -0.796260
v -0.796260 1.150000 -1.100000
v 0.656350 0.544032 -0.762227
v 0.762227 0.544032 -0.656350
v 0.796260 1.150000 -1.100000
v 1.100000 1.150000 -0.796260
v 0.762227 0.544032 0.656350
v 0.656350 0.544032 0.762227
v 1.100000 1.150000 0.796260
v 0.796260 1.150000 1.100000
v -0.796260 1.150000 1.100000
v -1.100000 1.150000 0.796260
v -0.796260 1.300000 1.100000
v -1.100000 1.300000 0.796260
v -1.100000 1.450000 0.796260
v -0.796260 1.450000 1.100000
v -0.900035 1.450000 0.900035
v -0.796260 1.450000 -1.100000
v -1.100000 1.450000 -0.796260
v -0.900035 1.450000 -0.900035
v -0.796260 1.300000 -1.100000
v -1.100000 1.300000 -0.796260
v 1.100000 1.450000 -0.796260
v 0.796260 1.450000 -1.100000
v 0.900035 1.450000 -0.900035
v 1.100000 1.300000 -0.796260
v 0.796260 1.300000 -1.100000
v 0.796260 1.450000 1.100000
v 1.100000 1.450000 0.796260
v 0.900035 1.450000 0.900035
v 0.796260 1.300000 1.100000
v 1.100000 1.300000 0.796260
v -0.482164 1.450000 0.900000
v -0.900000 1.450000 0.482164
v -0.900000 1.450000 0.900000
v -0.777619 1.450000 0.777619
v -0.900000 1.450000 -0.482164
v -0.482164 1.450000 -0.900000
v -0.900000 1.450000 -0.900000
v -0.777619 1.450000 -0.777619
v 0.482164 1.450000 -0.900000
v 0.900000 1.450000 -0.482164
v 0.900000 1.450000 -0.900000
v 0.777619 1.450000 -0.777619
v 0.900000 1.450000 0.482164
v 0.482164 1.450000 0.900000
v 0.900000 1.450000 0.900000
v 0.777619 1.450000 0.777619
v -0.900000 1.600000 0.482164
v -0.482164 1.600000 0.900000
v -0.672313 1.679884 0.672313
v -0.777619 1.600000 0.777619
v -0.482164 1.600000 -0.900000
v -0.900000 1.600000 -0.482164
v -0.672313 1.679884 -0.672313
v -0.777619 1.600000 -0.777619
v 0.900000 1.600000 -0.482164
v 0.482164 1.600000 -0.900000
v 0.672313 1.679884 -0.672313
v 0.777619 1.600000 -0.777619
v 0.482164 1.600000 0.900000
v 0.900000 1.600000 0.482164
v 0.672313 1.679884 0.672313
v 0.777619 1.600000 0.777619
v -0.656350 0.000000 -0.762227
v -0.762227 0.000000 -0.656350
v 0.762227 0.000000 -0.656350
v 0.656350 0.000000 -0.762227
v 0.656350 0.000000 0.762227
v 0.762227 0.000000 0.656350
v -0.762227 0.000000 0.656350
v -0.656350 0.000000 0.762227
v -0.796260 1.072322 -1.100000
v -0.696404 0.818312 -0.858926
v -0.767013 1.021183 -1.029391
v -0.858926 0.818312 -0.696404
v -1.100000 1.072322 -0.796260
v -1.029391 1.021183 -0.767013
v 1.100000 1.072322 -0.796260
v 0.858926 0.818312 -0.696404
v 1.029391 1.021183 -0.767013
v 0.696404 0.818312 -0.858926
v 0.796260 1.072322 -1.100000
v 0.767013 1.021183 -1.029391
v 0.796260 1.072322 1.100000
v 0.696404 0.818312 0.858926
v 0.767013 1.021183 1.029391
v 0.858926 0.818312 0.696404
v 1.100000 1.072322 0.796260
v 1.029391 1.021183 0.767013
v -1.100000 1.072322 0.796260
v -0.858926 0.818312 0.696404
v -1.029391 1.021183 0.767013
v -0.696404 0.818312 0.858926
v -0.796260 1.072322 1.100000
v -0.767013 1.021183 1.029391
v 0.656350 0.362688 -0.762227
v 0.656350 0.181344 -0.762227
v -0.656350 0.181344 -0.762227
v -0.656350 0.362688 -0.762227
v -0.762227 0.362688 0.656350
v -0.762227 0.181344 0.656350
v -0.656350 0.181344 0.762227
v -0.656350 0.362688 0.762227
v 0.762227 0.362688 -0.656350
v 0.762227 0.181344 -0.656350
v 0.762227 0.362688 0.656350
v 0.762227 0.181344 0.656350
v -0.762227 0.362688 -0.656350
v -0.762227 0.181344 -0.656350
v 0.656350 0.362688 0.762227
v 0.656350 0.181344 0.762227
v 0.656350 0.120896 -0.762227
v 0.656350 0.060448 -0.762227
v -0.762227 0.120896 0.656350
v -0.762227 0.060448 0.656350
v 0.762227 0.120896 -0.656350
v 0.762227 0.060448 -0.656350
v 0.762227 0.120896 0.656350
v 0.762227 0.060448 0.656350
v -0.762227 0.120896 -0.656350
v -0.762227 0.060448 -0.656350
v 0.656350 0.120896 0.762227
v 0.656350 0.060448 0.762227
v -0.656350 0.060448 -0.762227
v -0.656350 0.120896 -0.762227
v -0.656350 0.060448 0.762227
v -0.656350 0.120896 0.762227
v -0.853255 0.000000 -0.990895
v -0.990895 0.000000 -0.853255
v 0.990895 0.000000 -0.853255
v 0.853255 0.000000 -0.990895
v 0.853255 0.000000 0.990895
v 0.990895 0.000000 0.853255
v -0.990895 0.000000 0.853255
v -0.853255 0.000000 0.990895
v 0.853255 0.060448 -0.990895
v -0.990895 0.060448 0.853255
v 0.990895 0.060448 -0.853255
v 0.990895 0.060448 0.853255
v -0.990895 0.060448 -0.853255
v 0.853255 0.060448 0.990895
v -0.853255 0.060448 -0.990895
v -0.853255 0.060448 0.990895
v 0.787620 0.120896 -0.914672
v 0.787620 0.060448 -0.914672
v -0.914672 0.120896 0.787620
v -0.914672 0.060448 0.787620
v 0.914672 0.120896 -0.787620
v 0.914672 0.060448 -0.787620
v 0.914672 0.120896 0.787620
v 0.914672 0.060448 0.787620
v -0.914672 0.120896 -0.787620
v -0.914672 0.060448 -0.787620
v 0.787620 0.120896 0.914672
v 0.787620 0.060448 0.914672
v -0.787620 0.060448 -0.914672
v -0.787620 0.120896 -0.914672
v -0.787620 0.060448 0.914672
v -0.787620 0.120896 0.914672
v -0.721985 0.120896 -0.838450
v -0.721985 0.181344 -0.838450
v -0.721985 0.120896 0.838450
v -0.721985 0.181344 0.838450
v 0.721985 0.181344 0.838450
v -0.838450 0.181344 -0.721985
v 0.838450 0.181344 0.721985
v -0.838450 0.181344 0.721985
v 0.838450 0.181344 -0.721985
v 0.721985 0.181344 -0.838450
v 0.721985 0.120896 -0.838450
v -0.838450 0.120896 0.721985
v 0.838450 0.120896 -0.721985
v 0.838450 0.120896 0.721985
v -0.838450 0.120896 -0.721985
v 0.721985 0.120896 0.838450
vn -0.0000 -0.0000 -1.0000
vn -0.0000 1.0000 -0.0000
vn 1.0000 -0.0000 -0.0000
vn -0.6669 -0.3325 0.6669
vn -1.0000 -0.0000 -0.0000
vn -0.0000 -0.0000 1.0000
vn -0.0000 -1.0000 -0.0000
vn 0.7071 -0.0000 0.7071
vn -0.3311 0.9436 -0.0000
vn -0.0000 0.9436 0.3311
vn 0.3311 0.9436 -0.0000
vn -0.0000 0.9436 -0.3311
vn -0.0000 -0.3325 -0.9431
vn 0.9431 -0.3325 -0.0000
vn -0.0000 -0.3325 0.9431
vn -0.7071 -0.0000 0.7071
vn -0.7071 -0.0000 -0.7071
vn 0.7071 -0.0000 -0.7071
vn -0.9431 -0.3325 -0.0000
vn -0.4639 0.8648 0.1921
vn -0.1921 0.8648 0.4639
vn -0.1921 0.8648 -0.4639
vn -0.4639 0.8648 -0.1921
vn 0.4639 0.8648 -0.1921
vn 0.1921 0.8648 -0.4639
vn 0.1921 0.8648 0.4639
vn 0.4639 0.8648 0.1921
vn -0.3827 -0.0000 0.9239
vn -0.9239 -0.0000 0.3827
vn -0.3827 -0.0000 -0.9239
vn -0.9239 -0.0000 -0.3827
vn 0.9239 -0.0000 -0.3827
vn 0.3827 -0.0000 -0.9239
vn 0.3827 -0.0000 0.9239
vn 0.9239 -0.0000 0.3827
vn -0.6669 -0.3325 -0.6669
vn 0.6669 -0.3325 -0.6669
vn 0.6669 -0.3325 0.6669
vn -0.5414 -0.6433 -0.5414
vn -0.4148 -0.8099 -0.4148
vn 0.5414 -0.6433 -0.5414
vn 0.4148 -0.8099 -0.4148
vn 0.5414 -0.6433 0.5414
vn 0.4148 -0.8099 0.4148
vn -0.5414 -0.6433 0.5414
vn -0.4148 -0.8099 0.4148
vn -0.7656 -0.6433 -0.0000
vn -0.5866 -0.8099 -0.0000
vn -0.0000 -0.6433 -0.7656
vn -0.0000 -0.8099 -0.5866
vn 0.5866 -0.8099 -0.0000
vn 0.7656 -0.6433 -0.0000
vn -0.0000 -0.8099 0.5866
vn -0.0000 -0.6433 0.7656
vt 0.562500 0.308033
vt 0.625000 0.308033
vt 0.625000 0.441967
vt 0.562500 0.441967
vt 0.562500 0.250000
vt 0.562500 0.308033
vt 0.562500 0.500000
vt 0.562500 0.465484
vt 0.562500 0.284516
vt 0.562500 0.558033
vt 0.562500 0.691967
vt 0.562500 0.750000
vt 0.562500 0.715484
vt 0.562500 0.534516
vt 0.562500 0.000000
vt 0.562500 0.058033
vt 0.562500 0.191967
vt 0.562500 0.215484
vt 0.562500 0.034516
vt 0.667968 0.542968
vt 0.832032 0.542968
vt 0.832032 0.707032
vt 0.667968 0.707032
vt 0.500000 0.534516
vt 0.500000 0.715484
vt 0.625000 0.558033
vt 0.625000 0.691967
vt 0.562500 0.808033
vt 0.562500 0.941967
vt 0.562500 1.000000
vt 0.562500 0.965484
vt 0.562500 0.784516
vt 0.375000 0.830680
vt 0.375000 0.854743
vt 0.375000 0.886446
vt 0.375000 0.849510
vt 0.500000 0.284516
vt 0.500000 0.465484
vt 0.437500 0.034516
vt 0.500000 0.034516
vt 0.500000 0.215484
vt 0.437500 0.215484
vt 0.500000 0.034516
vt 0.562500 0.034516
vt 0.562500 0.058033
vt 0.625000 0.058033
vt 0.625000 0.191967
vt 0.437500 0.534516
vt 0.500000 0.534516
vt 0.500000 0.715484
vt 0.437500 0.715484
vt 0.437500 0.784516
vt 0.500000 0.784516
vt 0.500000 0.965484
vt 0.437500 0.965484
vt 0.375000 0.741723
vt 0.375000 0.717660
vt 0.405134 0.784516
vt 0.405134 0.715484
vt 0.843377 0.531623
vt 0.875000 0.558033
vt 0.875000 0.691967
vt 0.843377 0.718377
vt 0.405134 0.034516
vt 0.437500 0.034516
vt 0.405134 0.215484
vt 0.437500 0.284516
vt 0.500000 0.284516
vt 0.500000 0.465484
vt 0.437500 0.465484
vt 0.562500 0.965484
vt 0.500000 0.965484
vt 0.816967 0.750000
vt 0.683033 0.750000
vt 0.656623 0.718377
vt 0.656623 0.531623
vt 0.683033 0.500000
vt 0.816967 0.500000
vt 0.375000 0.508277
vt 0.375000 0.395257
vt 0.375000 0.363553
vt 0.375000 0.496026
vt 0.375000 0.532339
vt 0.375000 0.532963
vt 0.375000 0.717037
vt 0.375000 0.753974
vt 0.375000 0.886447
vt 0.437500 0.000000
vt 0.500000 0.000000
vt 0.375000 0.419320
vt 0.375000 0.400490
vt 0.562500 -0.020918
vt 0.562500 0.016997
vt 0.562500 0.233003
vt 0.562500 0.483003
vt 0.562500 0.733003
vt 0.864906 0.739906
vt 0.857768 0.732768
vt 0.850490 0.500000
vt 0.864906 0.510094
vt 0.875000 0.558033
vt 0.625000 0.524510
vt 0.635094 0.510094
vt 0.683033 0.500000
vt 0.635094 0.739906
vt 0.642232 0.732768
vt 0.562500 0.941967
vt 0.625000 0.941967
vt 0.625000 1.000000
vt 0.625000 0.000000
vt 0.625000 0.250000
vt 0.625000 0.500000
vt 0.625000 0.808033
vt 0.625000 0.750000
vt 0.405134 0.284516
vt 0.405134 0.465484
vt 0.405134 0.534516
vt 0.405134 0.715484
vt 0.437500 0.965484
vt 0.405134 0.965484
vt 0.405134 0.000000
vt 0.405134 0.465484
vt 0.375000 0.400490
vt 0.375000 0.363553
vt 0.375000 0.496026
vt 0.375000 0.717037
vt 0.375000 0.753974
vt 0.375000 0.395257
vt 0.375000 0.419320
vt 0.375000 0.348847
vt 0.375000 0.289216
vt 0.375000 0.279816
vt 0.375000 0.220184
vt 0.405134 0.215484
vt 0.375000 0.466172
vt 0.375000 0.533828
vt 0.375000 0.716172
vt 0.375000 0.783828
vt 0.375000 0.960784
vt 0.375000 0.901153
vt 0.375000 0.032166
vt 0.375000 0.002350
vt 0.375000 0.886482
vt 0.375000 0.363518
vt 0.375000 0.212161
vt 0.375000 0.037839
vt 0.375000 0.287839
vt 0.375000 0.962161
s 0
f 46/1/1 61/2/1 66/3/1 49/4/1
f 47/5/2 46/6/2 49/4/2 51/7/2 33/7/2 32/8/2 26/9/2 28/5/2
f 51/7/2 50/10/2 53/11/2 55/12/2 38/12/2 37/13/2 31/14/2 33/7/2
f 43/15/2 42/16/2 45/17/2 47/5/2 28/5/2 27/18/2 23/19/2 25/15/2
f 4/20/2 2/21/2 1/22/2 3/23/2
f 34/24/3 31/14/3 37/13/3 40/25/3
f 50/10/3 65/26/3 70/27/3 53/11/3
f 55/12/2 54/28/2 41/29/2 43/30/2 25/30/2 24/31/2 36/32/2 38/12/2
f 8/33/4 7/34/4 102/35/4 100/36/4
f 29/37/1 26/9/1 32/8/1 35/38/1
f 20/39/5 22/40/5 30/41/5 9/42/5
f 22/43/5 23/44/5 27/18/5 30/41/5
f 42/45/5 57/46/5 62/47/5 45/17/5
f 14/48/3 34/49/3 40/50/3 17/51/3
f 18/52/6 39/53/6 21/54/6 19/55/6
f 77/56/7 78/57/7 142/57/7 141/56/7
f 18/52/8 93/58/8 97/59/8 17/51/8
f 1/22/9 2/21/9 63/60/9 62/61/9 57/62/9 59/63/9
f 99/64/5 20/65/5 9/42/5 85/66/5
f 10/67/1 29/68/1 35/69/1 13/70/1
f 39/53/6 36/32/6 24/71/6 21/72/6
f 3/23/10 1/22/10 59/63/10 58/73/10 69/74/10 71/75/10
f 4/20/11 3/23/11 71/75/11 70/27/11 65/26/11 67/76/11
f 2/21/12 4/20/12 67/76/12 66/77/12 61/78/12 63/60/12
f 23/19/2 24/15/2 25/15/2
f 26/9/2 27/5/2 28/5/2
f 31/14/2 32/7/2 33/7/2
f 36/32/2 37/12/2 38/12/2
f 11/79/13 6/80/13 82/81/13 90/82/13
f 15/57/14 12/83/14 88/84/14 96/85/14
f 7/34/15 16/56/15 94/86/15 102/87/15
f 19/88/16 21/89/16 22/40/16 20/39/16
f 21/89/16 24/15/16 23/44/16 22/43/16
f 26/9/17 29/37/17 30/41/17 27/18/17
f 29/68/17 10/67/17 9/42/17 30/41/17
f 31/14/18 34/24/18 35/38/18 32/8/18
f 34/49/18 14/48/18 13/70/18 35/69/18
f 36/32/8 39/53/8 40/25/8 37/13/8
f 39/53/8 18/52/8 17/51/8 40/50/8
f 5/90/19 8/33/19 100/36/19 84/91/19
f 41/92/2 44/93/2 43/15/2
f 44/93/2 42/16/2 43/15/2
f 45/17/2 48/94/2 47/5/2
f 48/94/2 46/5/2 47/5/2
f 49/4/2 52/95/2 51/7/2
f 52/95/2 50/7/2 51/7/2
f 53/11/2 56/96/2 55/12/2
f 56/96/2 54/12/2 55/12/2
f 57/62/20 60/97/20 59/63/20
f 60/97/21 58/98/21 59/63/21
f 61/99/22 64/100/22 63/60/22
f 64/100/23 62/101/23 63/60/23
f 65/102/24 68/103/24 67/76/24
f 68/103/25 66/104/25 67/76/25
f 69/74/26 72/105/26 71/75/26
f 72/105/27 70/106/27 71/75/27
f 41/107/28 58/108/28 60/109/28 44/30/28
f 44/15/29 60/110/29 57/46/29 42/45/29
f 61/2/30 46/1/30 48/5/30 64/111/30
f 64/111/31 48/5/31 45/17/31 62/47/31
f 65/26/32 50/10/32 52/7/32 68/112/32
f 68/112/33 52/7/33 49/4/33 66/3/33
f 69/113/34 54/28/34 56/12/34 72/114/34
f 72/114/35 56/12/35 53/11/35 70/27/35
f 54/28/6 69/113/6 58/108/6 41/107/6
f 81/115/1 10/67/1 13/70/1 91/116/1
f 87/117/3 14/48/3 17/51/3 97/118/3
f 93/58/6 18/52/6 19/119/6 103/120/6
f 103/121/16 19/88/16 20/65/16 99/64/16
f 14/48/18 87/117/18 91/122/18 13/70/18
f 6/80/36 5/90/36 84/123/36 82/124/36
f 12/83/37 11/79/37 90/125/37 88/84/37
f 16/56/38 15/57/38 96/126/38 94/127/38
f 74/90/7 73/80/7 76/79/7 75/83/7 78/57/7 77/56/7 80/34/7 79/33/7
f 133/128/2 122/79/2 145/79/2 151/128/2
f 124/33/2 130/129/2 149/129/2 146/33/2
f 75/83/7 76/79/7 140/79/7 139/83/7
f 73/80/7 74/90/7 138/90/7 137/80/7
f 135/34/2 124/33/2 146/33/2 152/34/2
f 80/34/7 77/56/7 141/56/7 144/34/7
f 128/57/2 132/56/2 150/56/2 148/57/2
f 82/124/39 84/123/39 86/130/39 83/131/39
f 83/132/40 86/133/40 85/134/40 81/115/40
f 88/84/41 90/125/41 92/135/41 89/136/41
f 89/136/42 92/135/42 91/122/42 87/117/42
f 94/127/43 96/126/43 98/137/43 95/138/43
f 95/138/44 98/137/44 97/59/44 93/58/44
f 100/36/45 102/35/45 104/139/45 101/140/45
f 101/141/46 104/142/46 103/121/46 99/64/46
f 84/91/47 100/36/47 101/143/47 86/144/47
f 86/145/48 101/146/48 99/64/48 85/66/48
f 90/82/49 82/81/49 83/147/49 92/135/49
f 92/135/50 83/147/50 81/115/50 91/116/50
f 87/117/51 97/118/51 98/137/51 89/136/51
f 89/136/52 98/137/52 96/85/52 88/84/52
f 93/58/53 103/120/53 104/148/53 95/138/53
f 95/138/54 104/148/54 102/87/54 94/86/54
f 10/67/17 81/115/17 85/134/17 9/42/17
f 16/56/6 7/34/6 112/34/6 119/56/6
f 119/56/6 112/34/6 111/34/6 120/56/6
f 5/90/17 6/80/17 108/128/17 117/129/17
f 117/129/17 108/128/17 107/128/17 118/129/17
f 15/57/8 16/56/8 119/56/8 115/57/8
f 115/57/8 119/56/8 120/56/8 116/57/8
f 8/33/5 5/90/5 117/129/5 109/33/5
f 109/33/5 117/129/5 118/129/5 110/33/5
f 12/83/3 15/57/3 115/57/3 113/83/3
f 113/83/3 115/57/3 116/57/3 114/83/3
f 11/79/18 12/83/18 113/83/18 105/79/18
f 105/79/18 113/83/18 114/83/18 106/79/18
f 7/34/16 8/33/16 109/33/16 112/34/16
f 112/34/16 109/33/16 110/33/16 111/34/16
f 6/80/1 11/79/1 105/79/1 108/128/1
f 108/128/1 105/79/1 106/79/1 107/128/1
f 127/57/7 125/83/7 181/83/7 182/57/7
f 125/83/2 127/57/2 159/57/2 157/83/2
f 118/129/2 107/128/2 170/128/2 174/129/2
f 122/79/7 133/128/7 165/128/7 154/79/7
f 136/34/7 131/56/7 184/56/7 171/34/7
f 131/56/2 136/34/2 168/34/2 163/56/2
f 114/83/2 116/57/2 175/57/2 177/83/2
f 130/129/7 124/33/7 156/33/7 162/129/7
f 121/79/7 134/128/7 169/128/7 179/79/7
f 134/128/2 121/79/2 153/79/2 166/128/2
f 129/129/7 123/33/7 180/33/7 183/129/7
f 123/33/2 129/129/2 161/129/2 155/33/2
f 120/56/2 111/34/2 172/34/2 173/56/2
f 124/33/7 135/34/7 167/34/7 156/33/7
f 107/128/2 106/79/2 178/79/2 170/128/2
f 132/56/7 128/57/7 160/57/7 164/56/7
f 151/128/1 145/79/1 140/79/1 137/80/1
f 152/34/16 146/33/16 143/33/16 144/34/16
f 145/79/18 147/83/18 139/83/18 140/79/18
f 147/83/3 148/57/3 142/57/3 139/83/3
f 146/33/5 149/129/5 138/90/5 143/33/5
f 148/57/8 150/56/8 141/56/8 142/57/8
f 149/129/17 151/128/17 137/80/17 138/90/17
f 150/56/6 152/34/6 144/34/6 141/56/6
f 132/56/2 135/34/2 152/34/2 150/56/2
f 79/33/7 80/34/7 144/34/7 143/33/7
f 126/83/2 128/57/2 148/57/2 147/83/2
f 74/90/7 79/33/7 143/33/7 138/90/7
f 130/129/2 133/128/2 151/128/2 149/129/2
f 76/79/7 73/80/7 137/80/7 140/79/7
f 122/79/2 126/83/2 147/83/2 145/79/2
f 78/57/7 75/83/7 139/83/7 142/57/7
f 163/56/6 168/34/6 167/34/6 164/56/6
f 161/129/17 166/128/17 165/128/17 162/129/17
f 159/57/8 163/56/8 164/56/8 160/57/8
f 155/33/5 161/129/5 162/129/5 156/33/5
f 157/83/3 159/57/3 160/57/3 158/83/3
f 153/79/18 157/83/18 158/83/18 154/79/18
f 168/34/16 155/33/16 156/33/16 167/34/16
f 166/128/1 153/79/1 154/79/1 165/128/1
f 135/34/7 132/56/7 164/56/7 167/34/7
f 128/57/7 126/83/7 158/83/7 160/57/7
f 129/129/2 134/128/2 166/128/2 161/129/2
f 121/79/2 125/83/2 157/83/2 153/79/2
f 133/128/7 130/129/7 162/129/7 165/128/7
f 126/83/7 122/79/7 154/79/7 158/83/7
f 127/57/2 131/56/2 163/56/2 159/57/2
f 136/34/2 123/33/2 155/33/2 168/34/2
f 173/56/6 172/34/6 171/34/6 184/56/6
f 174/129/17 170/128/17 169/128/17 183/129/17
f 175/57/8 173/56/8 184/56/8 182/57/8
f 176/33/5 174/129/5 183/129/5 180/33/5
f 177/83/3 175/57/3 182/57/3 181/83/3
f 178/79/18 177/83/18 181/83/18 179/79/18
f 172/34/16 176/33/16 180/33/16 171/34/16
f 170/128/1 178/79/1 179/79/1 169/128/1
f 106/79/2 114/83/2 177/83/2 178/79/2
f 134/128/7 129/129/7 183/129/7 169/128/7
f 125/83/7 121/79/7 179/79/7 181/83/7
f 116/57/2 120/56/2 173/56/2 175/57/2
f 111/34/2 110/33/2 176/33/2 172/34/2
f 131/56/7 127/57/7 182/57/7 184/56/7
f 123/33/7 136/34/7 171/34/7 180/33/7
f 110/33/2 118/129/2 174/129/2 176/33/2
