# Blender v3.0.0 OBJ File: 'POCIĄG models.blend'
# www.blender.org
mtllib DoorsStandardModel.mtl
o Cube.008_Cube.005
v 3.100000 0.000000 -0.200000
v 3.100000 3.500767 -0.200000
v 2.821927 0.278073 0.200000
v 2.821927 3.490207 0.200000
v 0.100000 0.000000 -0.200000
v 0.100000 9.000000 -0.200000
v 0.378073 0.278073 0.200000
v 0.378073 8.721927 0.200000
v 0.850000 0.278074 0.200000
v 1.600000 0.278074 0.200000
v 2.350000 0.278074 0.200000
v 2.253222 7.406322 0.200000
v 1.409331 8.344539 0.200000
v 0.789817 8.682473 0.200000
v 2.350000 0.000000 -0.200000
v 1.600000 0.000000 -0.200000
v 0.850000 0.000000 -0.200000
v 0.850000 8.955345 -0.200000
v 1.600000 8.548963 -0.200000
v 2.496727 7.552358 -0.200000
v 1.225000 0.278074 0.200000
v 1.094336 8.583032 0.200000
v 1.225000 0.000000 -0.200000
v 1.225000 8.832888 -0.200000
v 1.975000 0.278074 0.200000
v 1.767906 7.933765 0.200000
v 1.975000 0.000000 -0.200000
v 1.975000 8.119373 -0.200000
v 2.725000 0.278074 0.200000
v 2.873787 6.474828 -0.200000
v 2.599279 6.417390 0.200000
v 2.725000 0.000000 -0.200000
v 0.458502 8.721927 0.200000
v 0.475000 0.000000 -0.200000
v 0.475000 0.278074 0.200000
v 0.475000 9.000000 -0.200000
v 3.100000 3.500767 0.200000
v 3.100000 0.000000 0.200000
v 2.725000 0.000000 0.200000
v 0.475000 9.000000 0.200000
v 0.100000 9.000000 0.200000
v 0.100000 0.000000 0.200000
v 0.475000 0.000000 0.200000
v 0.850000 0.000000 0.200000
v 1.225000 0.000000 0.200000
v 1.600000 0.000000 0.200000
v 1.975000 0.000000 0.200000
v 2.350000 0.000000 0.200000
v 2.873787 6.474828 0.200000
v 2.496727 7.552358 0.200000
v 1.975000 8.119373 0.200000
v 1.600000 8.548963 0.200000
v 1.225000 8.832888 0.200000
v 0.850000 8.955345 0.200000
v 2.821927 3.490207 0.001681
v 2.821927 0.278073 0.001681
v 2.725000 0.278074 0.001681
v 0.458502 8.721927 0.001681
v 0.378073 8.721927 0.001681
v 0.378073 0.278073 0.001681
v 0.475000 0.278074 0.001681
v 0.850000 0.278074 0.001681
v 1.225000 0.278074 0.001681
v 1.600000 0.278074 0.001681
v 1.975000 0.278074 0.001681
v 2.350000 0.278074 0.001681
v 2.599279 6.417390 0.001681
v 2.253222 7.406322 0.001681
v 1.767906 7.933765 0.001681
v 1.409331 8.344539 0.001681
v 1.094336 8.583032 0.001681
v 0.789817 8.682473 0.001681
v 2.986894 4.987797 -0.200000
v 2.986894 4.987797 0.200000
v 2.710603 4.953798 0.200000
v 2.710603 4.953798 0.001681
v 0.100000 5.074744 0.200000
v 0.100000 5.074744 -0.200000
v 0.378073 5.074744 0.200000
v 0.378073 5.074744 0.001681
v -3.100000 0.000000 -0.200000
v -3.100000 3.500767 -0.200000
v -2.821927 0.278073 0.200000
v -2.821927 3.490207 0.200000
v -0.100000 0.000000 -0.200000
v -0.100000 9.000000 -0.200000
v -0.378073 0.278073 0.200000
v -0.378073 8.721927 0.200000
v -0.850000 0.278074 0.200000
v -1.600000 0.278074 0.200000
v -2.350000 0.278074 0.200000
v -2.253222 7.406322 0.200000
v -1.409331 8.344539 0.200000
v -0.789817 8.682473 0.200000
v -2.350000 0.000000 -0.200000
v -1.600000 0.000000 -0.200000
v -0.850000 0.000000 -0.200000
v -0.850000 8.955345 -0.200000
v -1.600000 8.548963 -0.200000
v -2.496727 7.552358 -0.200000
v -1.225000 0.278074 0.200000
v -1.094336 8.583032 0.200000
v -1.225000 0.000000 -0.200000
v -1.225000 8.832888 -0.200000
v -1.975000 0.278074 0.200000
v -1.767906 7.933765 0.200000
v -1.975000 0.000000 -0.200000
v -1.975000 8.119373 -0.200000
v -2.725000 0.278074 0.200000
v -2.873787 6.474828 -0.200000
v -2.599279 6.417390 0.200000
v -2.725000 0.000000 -0.200000
v -0.458502 8.721927 0.200000
v -0.475000 0.000000 -0.200000
v -0.475000 0.278074 0.200000
v -0.475000 9.000000 -0.200000
v -3.100000 3.500767 0.200000
v -3.100000 0.000000 0.200000
v -2.725000 0.000000 0.200000
v -0.475000 9.000000 0.200000
v -0.100000 9.000000 0.200000
v -0.100000 0.000000 0.200000
v -0.475000 0.000000 0.200000
v -0.850000 0.000000 0.200000
v -1.225000 0.000000 0.200000
v -1.600000 0.000000 0.200000
v -1.975000 0.000000 0.200000
v -2.350000 0.000000 0.200000
v -2.873787 6.474828 0.200000
v -2.496727 7.552358 0.200000
v -1.975000 8.119373 0.200000
v -1.600000 8.548963 0.200000
v -1.225000 8.832888 0.200000
v -0.850000 8.955345 0.200000
v -2.821927 3.490207 0.001681
v -2.821927 0.278073 0.001681
v -2.725000 0.278074 0.001681
v -0.458502 8.721927 0.001681
v -0.378073 8.721927 0.001681
v -0.378073 0.278073 0.001681
v -0.475000 0.278074 0.001681
v -0.850000 0.278074 0.001681
v -1.225000 0.278074 0.001681
v -1.600000 0.278074 0.001681
v -1.975000 0.278074 0.001681
v -2.350000 0.278074 0.001681
v -2.599279 6.417390 0.001681
v -2.253222 7.406322 0.001681
v -1.767906 7.933765 0.001681
v -1.409331 8.344539 0.001681
v -1.094337 8.583032 0.001681
v -0.789817 8.682473 0.001681
v -2.986894 4.987797 -0.200000
v -2.986894 4.987797 0.200000
v -2.710603 4.953798 0.200000
v -2.710603 4.953798 0.001681
v -0.100000 5.074744 0.200000
v -0.100000 5.074744 -0.200000
v -0.378073 5.074744 0.200000
v -0.378073 5.074744 0.001681
vt 0.375000 0.000000
vt 0.625000 0.000000
vt 0.625000 0.250000
vt 0.375000 0.250000
vt 0.500000 0.500000
vt 0.625000 0.500000
vt 0.625000 0.750000
vt 0.500000 0.750000
vt 0.343750 0.500000
vt 0.375000 0.500000
vt 0.375000 0.750000
vt 0.343750 0.750000
vt 0.859375 0.500000
vt 0.875000 0.500000
vt 0.875000 0.750000
vt 0.859375 0.750000
vt 0.656250 0.500000
vt 0.687500 0.500000
vt 0.687500 0.750000
vt 0.656250 0.750000
vt 0.718750 0.500000
vt 0.750000 0.500000
vt 0.750000 0.750000
vt 0.718750 0.750000
vt 0.781250 0.500000
vt 0.812500 0.500000
vt 0.812500 0.750000
vt 0.781250 0.750000
vt 0.156250 0.500000
vt 0.187500 0.500000
vt 0.187500 0.750000
vt 0.156250 0.750000
vt 0.218750 0.500000
vt 0.250000 0.500000
vt 0.250000 0.750000
vt 0.218750 0.750000
vt 0.281250 0.500000
vt 0.312500 0.500000
vt 0.312500 0.750000
vt 0.281250 0.750000
vt 0.125000 0.500000
vt 0.125000 0.750000
vt 0.843750 0.500000
vt 0.843750 0.750000
vt 0.647970 0.500000
vt 0.641069 0.500000
vt 0.641069 0.500000
vt 0.647970 0.500000
vt 0.803348 0.500000
vt 0.191768 0.500000
vt 0.197284 0.500000
vt 0.505610 0.500000
vt 0.336571 0.500000
vt 0.363809 0.500000
vt 0.279300 0.500000
vt 0.308032 0.500000
vt 0.222887 0.500000
vt 0.250763 0.500000
vt 0.787009 0.500000
vt 0.812047 0.500000
vt 0.726686 0.500000
vt 0.753626 0.500000
vt 0.675920 0.500000
vt 0.701366 0.500000
vt 0.807697 0.500000
vt 0.370150 0.500000
vt 0.363809 0.500000
vt 0.370150 0.500000
vt 0.308032 0.500000
vt 0.336571 0.500000
vt 0.505610 0.500000
vt 0.701366 0.500000
vt 0.726686 0.500000
vt 0.250763 0.500000
vt 0.279300 0.500000
vt 0.753626 0.500000
vt 0.787009 0.500000
vt 0.222887 0.500000
vt 0.197284 0.500000
vt 0.812047 0.500000
vt 0.803348 0.500000
vt 0.191768 0.500000
vt 0.807697 0.500000
vt 0.675920 0.500000
vt 0.375000 0.000000
vt 0.375000 0.250000
vt 0.625000 0.250000
vt 0.625000 0.000000
vt 0.500000 0.500000
vt 0.500000 0.750000
vt 0.625000 0.750000
vt 0.625000 0.500000
vt 0.343750 0.500000
vt 0.343750 0.750000
vt 0.375000 0.750000
vt 0.375000 0.500000
vt 0.859375 0.500000
vt 0.859375 0.750000
vt 0.875000 0.750000
vt 0.875000 0.500000
vt 0.656250 0.500000
vt 0.656250 0.750000
vt 0.687500 0.750000
vt 0.687500 0.500000
vt 0.718750 0.500000
vt 0.718750 0.750000
vt 0.750000 0.750000
vt 0.750000 0.500000
vt 0.781250 0.500000
vt 0.781250 0.750000
vt 0.812500 0.750000
vt 0.812500 0.500000
vt 0.156250 0.500000
vt 0.156250 0.750000
vt 0.187500 0.750000
vt 0.187500 0.500000
vt 0.218750 0.500000
vt 0.218750 0.750000
vt 0.250000 0.750000
vt 0.250000 0.500000
vt 0.281250 0.500000
vt 0.281250 0.750000
vt 0.312500 0.750000
vt 0.312500 0.500000
vt 0.125000 0.500000
vt 0.125000 0.750000
vt 0.843750 0.750000
vt 0.843750 0.500000
vt 0.647970 0.500000
vt 0.647970 0.500000
vt 0.641069 0.500000
vt 0.641069 0.500000
vt 0.803348 0.500000
vt 0.191768 0.500000
vt 0.197284 0.500000
vt 0.505610 0.500000
vt 0.336571 0.500000
vt 0.363809 0.500000
vt 0.279300 0.500000
vt 0.308032 0.500000
vt 0.222887 0.500000
vt 0.250763 0.500000
vt 0.787009 0.500000
vt 0.812047 0.500000
vt 0.726686 0.500000
vt 0.753626 0.500000
vt 0.675920 0.500000
vt 0.701366 0.500000
vt 0.807697 0.500000
vt 0.370150 0.500000
vt 0.370150 0.500000
vt 0.363809 0.500000
vt 0.336571 0.500000
vt 0.308032 0.500000
vt 0.505610 0.500000
vt 0.726686 0.500000
vt 0.701366 0.500000
vt 0.279300 0.500000
vt 0.250763 0.500000
vt 0.787009 0.500000
vt 0.753626 0.500000
vt 0.222887 0.500000
vt 0.197284 0.500000
vt 0.812047 0.500000
vt 0.191768 0.500000
vt 0.803348 0.500000
vt 0.807697 0.500000
vt 0.675920 0.500000
vn 1.0000 0.0000 0.0000
vn -1.0000 0.0000 -0.0000
vn 0.0000 -1.0000 0.0000
vn 0.9971 0.0758 0.0000
vn 0.1182 0.9930 0.0000
vn 0.6036 0.7973 0.0000
vn 0.7359 0.6771 0.0000
vn 0.3104 0.9506 -0.0000
vn 0.7534 0.6576 0.0000
vn 0.9439 0.3303 0.0000
vn 0.0000 1.0000 0.0000
vn -0.0000 0.0000 1.0000
vn -0.6036 -0.7973 0.0000
vn -0.7359 -0.6771 0.0000
vn -0.9439 -0.3303 0.0000
vn -0.9971 -0.0758 0.0000
vn -0.7534 -0.6576 0.0000
vn -0.1182 -0.9930 0.0000
vn -0.3104 -0.9506 0.0000
vn 0.0000 0.0000 -1.0000
vn -0.9971 0.0758 0.0000
vn -0.1182 0.9930 0.0000
vn -0.6036 0.7973 -0.0000
vn -0.7359 0.6771 0.0000
vn -0.3104 0.9506 0.0000
vn -0.7534 0.6576 0.0000
vn -0.9439 0.3303 0.0000
vn 0.6036 -0.7973 -0.0000
vn 0.7359 -0.6771 0.0000
vn 0.9439 -0.3303 0.0000
vn 0.9971 -0.0758 0.0000
vn 0.7534 -0.6576 0.0000
vn 0.1182 -0.9930 0.0000
vn 0.3104 -0.9506 -0.0000
usemtl None
s off
f 1/1/1 2/2/1 37/3/1 38/4/1
f 77/5/2 41/6/2 6/7/2 78/8/2
f 43/9/3 42/10/3 5/11/3 34/12/3
f 74/13/4 37/14/4 2/15/4 73/16/4
f 40/17/5 54/18/5 18/19/5 36/20/5
f 53/21/6 52/22/6 19/23/6 24/24/6
f 51/25/7 50/26/7 20/27/7 28/28/7
f 39/29/3 48/30/3 15/31/3 32/32/3
f 47/33/3 46/34/3 16/35/3 27/36/3
f 45/37/3 44/38/3 17/39/3 23/40/3
f 46/34/3 45/37/3 23/40/3 16/35/3
f 54/18/8 53/21/8 24/24/8 18/19/8
f 48/30/3 47/33/3 27/36/3 15/31/3
f 52/22/9 51/25/9 28/28/9 19/23/9
f 38/41/3 39/29/3 32/32/3 1/42/3
f 50/26/10 49/43/10 30/44/10 20/27/10
f 33/45/3 8/46/3 59/47/3 58/48/3
f 41/6/11 40/17/11 36/20/11 6/7/11
f 44/38/3 43/9/3 34/12/3 17/39/3
f 4/49/12 3/50/12 38/41/12 37/14/12
f 3/50/12 29/51/12 39/29/12 38/41/12
f 8/46/12 33/45/12 40/17/12 41/6/12
f 79/52/12 8/46/12 41/6/12 77/5/12
f 9/53/12 35/54/12 43/9/12 44/38/12
f 10/55/12 21/56/12 45/37/12 46/34/12
f 11/57/12 25/58/12 47/33/12 48/30/12
f 12/59/12 31/60/12 49/43/12 50/26/12
f 13/61/12 26/62/12 51/25/12 52/22/12
f 14/63/12 22/64/12 53/21/12 54/18/12
f 21/56/12 9/53/12 44/38/12 45/37/12
f 22/64/12 13/61/12 52/22/12 53/21/12
f 25/58/12 10/55/12 46/34/12 47/33/12
f 26/62/12 12/59/12 50/26/12 51/25/12
f 29/51/12 11/57/12 48/30/12 39/29/12
f 75/65/12 4/49/12 37/14/12 74/13/12
f 33/45/12 14/63/12 54/18/12 40/17/12
f 35/54/12 7/66/12 42/10/12 43/9/12
f 7/66/11 35/54/11 61/67/11 60/68/11
f 9/53/11 21/56/11 63/69/11 62/70/11
f 79/52/1 7/66/1 60/68/1 80/71/1
f 13/61/13 22/64/13 71/72/13 70/73/13
f 35/54/11 9/53/11 62/70/11 61/67/11
f 10/55/11 25/58/11 65/74/11 64/75/11
f 21/56/11 10/55/11 64/75/11 63/69/11
f 12/59/14 26/62/14 69/76/14 68/77/14
f 25/58/11 11/57/11 66/78/11 65/74/11
f 11/57/11 29/51/11 57/79/11 66/78/11
f 31/60/15 12/59/15 68/77/15 67/80/15
f 3/50/2 4/49/2 55/81/2 56/82/2
f 75/65/16 31/60/16 67/80/16 76/83/16
f 26/62/17 13/61/17 70/73/17 69/76/17
f 29/51/11 3/50/11 56/82/11 57/79/11
f 14/63/18 33/45/18 58/48/18 72/84/18
f 22/64/19 14/63/19 72/84/19 71/72/19
f 4/49/16 75/65/16 76/83/16 55/81/16
f 31/60/12 75/65/12 74/13/12 49/43/12
f 49/43/4 74/13/4 73/16/4 30/44/4
f 8/46/1 79/52/1 80/71/1 59/47/1
f 7/66/12 79/52/12 77/5/12 42/10/12
f 42/10/2 77/5/2 78/8/2 5/11/2
f 56/82/12 55/81/12 76/83/12 80/71/12 60/68/12 61/67/12 62/70/12 63/69/12 64/75/12 65/74/12 66/78/12 57/79/12
f 58/48/12 59/47/12 80/71/12 76/83/12 67/80/12 68/77/12 69/76/12 70/73/12 71/72/12 72/84/12
f 1/42/20 32/32/20 15/31/20 27/36/20 16/35/20 23/40/20 17/39/20 34/12/20 5/11/20 78/8/20 6/7/20 36/20/20 18/19/20 24/24/20 19/23/20 28/28/20 20/27/20 30/44/20 73/16/20 2/15/20
f 81/85/2 118/86/2 117/87/2 82/88/2
f 157/89/1 158/90/1 86/91/1 121/92/1
f 123/93/3 114/94/3 85/95/3 122/96/3
f 154/97/21 153/98/21 82/99/21 117/100/21
f 120/101/22 116/102/22 98/103/22 134/104/22
f 133/105/23 104/106/23 99/107/23 132/108/23
f 131/109/24 108/110/24 100/111/24 130/112/24
f 119/113/3 112/114/3 95/115/3 128/116/3
f 127/117/3 107/118/3 96/119/3 126/120/3
f 125/121/3 103/122/3 97/123/3 124/124/3
f 126/120/3 96/119/3 103/122/3 125/121/3
f 134/104/25 98/103/25 104/106/25 133/105/25
f 128/116/3 95/115/3 107/118/3 127/117/3
f 132/108/26 99/107/26 108/110/26 131/109/26
f 118/125/3 81/126/3 112/114/3 119/113/3
f 130/112/27 100/111/27 110/127/27 129/128/27
f 113/129/3 138/130/3 139/131/3 88/132/3
f 121/92/11 86/91/11 116/102/11 120/101/11
f 124/124/3 97/123/3 114/94/3 123/93/3
f 84/133/12 117/100/12 118/125/12 83/134/12
f 83/134/12 118/125/12 119/113/12 109/135/12
f 88/132/12 121/92/12 120/101/12 113/129/12
f 159/136/12 157/89/12 121/92/12 88/132/12
f 89/137/12 124/124/12 123/93/12 115/138/12
f 90/139/12 126/120/12 125/121/12 101/140/12
f 91/141/12 128/116/12 127/117/12 105/142/12
f 92/143/12 130/112/12 129/128/12 111/144/12
f 93/145/12 132/108/12 131/109/12 106/146/12
f 94/147/12 134/104/12 133/105/12 102/148/12
f 101/140/12 125/121/12 124/124/12 89/137/12
f 102/148/12 133/105/12 132/108/12 93/145/12
f 105/142/12 127/117/12 126/120/12 90/139/12
f 106/146/12 131/109/12 130/112/12 92/143/12
f 109/135/12 119/113/12 128/116/12 91/141/12
f 155/149/12 154/97/12 117/100/12 84/133/12
f 113/129/12 120/101/12 134/104/12 94/147/12
f 115/138/12 123/93/12 122/96/12 87/150/12
f 87/150/11 140/151/11 141/152/11 115/138/11
f 89/137/11 142/153/11 143/154/11 101/140/11
f 159/136/2 160/155/2 140/151/2 87/150/2
f 93/145/28 150/156/28 151/157/28 102/148/28
f 115/138/11 141/152/11 142/153/11 89/137/11
f 90/139/11 144/158/11 145/159/11 105/142/11
f 101/140/11 143/154/11 144/158/11 90/139/11
f 92/143/29 148/160/29 149/161/29 106/146/29
f 105/142/11 145/159/11 146/162/11 91/141/11
f 91/141/11 146/162/11 137/163/11 109/135/11
f 111/144/30 147/164/30 148/160/30 92/143/30
f 83/134/1 136/165/1 135/166/1 84/133/1
f 155/149/31 156/167/31 147/164/31 111/144/31
f 106/146/32 149/161/32 150/156/32 93/145/32
f 109/135/11 137/163/11 136/165/11 83/134/11
f 94/147/33 152/168/33 138/130/33 113/129/33
f 102/148/34 151/157/34 152/168/34 94/147/34
f 84/133/31 135/166/31 156/167/31 155/149/31
f 111/144/12 129/128/12 154/97/12 155/149/12
f 129/128/21 110/127/21 153/98/21 154/97/21
f 88/132/2 139/131/2 160/155/2 159/136/2
f 87/150/12 122/96/12 157/89/12 159/136/12
f 122/96/1 85/95/1 158/90/1 157/89/1
f 136/165/12 137/163/12 146/162/12 145/159/12 144/158/12 143/154/12 142/153/12 141/152/12 140/151/12 160/155/12 156/167/12 135/166/12
f 138/130/12 152/168/12 151/157/12 150/156/12 149/161/12 148/160/12 147/164/12 156/167/12 160/155/12 139/131/12
f 81/126/20 82/99/20 153/98/20 110/127/20 100/111/20 108/110/20 99/107/20 104/106/20 98/103/20 116/102/20 86/91/20 158/90/20 85/95/20 114/94/20 97/123/20 103/122/20 96/119/20 107/118/20 95/115/20 112/114/20
