# Blender v3.0.0 OBJ File: 'POCIĄG models.blend'
# www.blender.org
mtllib SaberModel.mtl
o Cube.004_Cube.006
v 0.084000 -0.058800 -0.350000
v 0.084000 -0.058800 0.350000
v -0.084000 -0.058800 -0.350000
v -0.084000 -0.058800 0.350000
v 0.084000 0.058800 -0.350000
v 0.084000 0.058800 0.350000
v -0.084000 0.058800 -0.350000
v -0.084000 0.058800 0.350000
v -0.084000 0.019600 -0.350000
v -0.084000 -0.019600 -0.350000
v -0.084000 -0.019600 0.350000
v -0.084000 0.019600 0.350000
v 0.084000 -0.019600 -0.350000
v 0.084000 0.019600 -0.350000
v 0.084000 0.019600 0.350000
v 0.084000 -0.019600 0.350000
v -0.064400 -0.058800 -0.350000
v 0.064400 -0.058800 -0.350000
v 0.064400 -0.058800 0.350000
v -0.064400 -0.058800 0.350000
v 0.064400 0.058800 -0.350000
v -0.064400 0.058800 -0.350000
v -0.064400 0.058800 0.350000
v 0.064400 0.058800 0.350000
v -0.080500 0.035000 0.350000
v 0.080500 0.035000 0.350000
v -0.080500 -0.035000 0.350000
v 0.080500 -0.035000 0.350000
v -0.080500 -0.035000 -0.350000
v 0.080500 -0.035000 -0.350000
v -0.080500 0.035000 -0.350000
v 0.080500 0.035000 -0.350000
v -0.073012 0.035000 0.568968
v 0.073012 0.035000 0.568968
v -0.073012 -0.035000 0.568968
v 0.073012 -0.035000 0.568968
v -0.033953 0.024322 1.086434
v 0.104623 0.024323 1.078386
v -0.033953 -0.024817 1.086410
v 0.104622 -0.024816 1.078362
v 0.042053 0.019211 1.639436
v 0.157735 0.019016 1.608426
v 0.042046 -0.020678 1.639341
v 0.157728 -0.020477 1.608331
v 0.146754 0.012162 2.120140
v 0.237638 0.011513 2.068239
v 0.146739 -0.015705 2.119982
v 0.237622 -0.015045 2.068081
v 0.292726 0.002786 2.522833
v 0.369817 0.002804 2.482248
v 0.292696 -0.007433 2.522710
v 0.369787 -0.007414 2.482125
v 0.215096 -0.061189 0.305673
v 0.218582 -0.061189 0.345520
v -0.308751 -0.053424 0.354570
v -0.339287 -0.061189 0.394328
v 0.215096 0.061189 0.305673
v 0.218582 0.061189 0.345520
v -0.308751 0.053425 0.354570
v -0.339287 0.061189 0.394328
v -0.258434 -0.053425 0.344494
v 0.029140 -0.061189 0.321942
v 0.032626 -0.061189 0.361789
v -0.153330 -0.061189 0.378059
v 0.029140 0.061189 0.321942
v -0.258434 0.053425 0.344494
v -0.153330 0.061189 0.378059
v 0.032626 0.061189 0.361789
v -0.342773 0.061189 0.354480
v -0.342773 -0.061189 0.354480
v -0.156817 0.061189 0.338211
v -0.156817 -0.061189 0.338211
v -0.285766 0.053425 -0.147699
v -0.285766 -0.053425 -0.147699
v -0.236027 0.053425 -0.127593
v -0.236027 -0.053425 -0.127593
v -0.254220 0.053425 -0.222372
v -0.254221 -0.053425 -0.222372
v -0.212915 0.053425 -0.188135
v -0.212915 -0.053425 -0.188135
v -0.204319 0.053425 -0.281056
v -0.204319 -0.053425 -0.281056
v -0.173634 0.053425 -0.237048
v -0.173635 -0.053425 -0.237048
v -0.123224 0.053425 -0.319757
v -0.123224 -0.053425 -0.319757
v -0.107549 0.053425 -0.268449
v -0.107549 -0.053425 -0.268449
v -0.073038 0.053425 -0.323502
v -0.073038 -0.053425 -0.323502
v -0.075693 0.053425 -0.269918
v -0.075694 -0.053425 -0.269918
vt 0.375000 0.166667
vt 0.625000 0.166667
vt 0.625000 0.250000
vt 0.375000 0.250000
vt 0.375000 0.416667
vt 0.625000 0.416667
vt 0.625000 0.500000
vt 0.375000 0.500000
vt 0.375000 0.666667
vt 0.625000 0.666667
vt 0.625000 0.750000
vt 0.375000 0.750000
vt 0.375000 0.916667
vt 0.625000 0.916667
vt 0.625000 1.000000
vt 0.375000 1.000000
vt 0.291667 0.666667
vt 0.291667 0.750000
vt 0.791667 0.666667
vt 0.875000 0.666667
vt 0.875000 0.750000
vt 0.791667 0.750000
vt 0.708333 0.666667
vt 0.708333 0.750000
vt 0.125000 0.666667
vt 0.208333 0.666667
vt 0.208333 0.750000
vt 0.125000 0.750000
vt 0.625000 0.833333
vt 0.375000 0.833333
vt 0.625000 0.333333
vt 0.375000 0.333333
vt 0.208333 0.500000
vt 0.291667 0.500000
vt 0.291667 0.583333
vt 0.208333 0.583333
vt 0.125000 0.500000
vt 0.125000 0.583333
vt 0.708333 0.500000
vt 0.791667 0.500000
vt 0.791667 0.583333
vt 0.708333 0.583333
vt 0.708333 0.583333
vt 0.708333 0.666667
vt 0.625000 0.583333
vt 0.875000 0.500000
vt 0.875000 0.583333
vt 0.375000 0.583333
vt 0.375000 0.000000
vt 0.625000 0.000000
vt 0.625000 0.083333
vt 0.375000 0.083333
vt 0.791667 0.583333
vt 0.791667 0.583333
vt 0.708333 0.583333
vt 0.791667 0.666667
vt 0.791667 0.583333
vt 0.708333 0.583333
vt 0.708333 0.666667
vt 0.791667 0.666667
vt 0.791667 0.666667
vt 0.708333 0.666667
vt 0.708333 0.666667
vt 0.791667 0.666667
vt 0.708333 0.583333
vt 0.791667 0.583333
vt 0.791667 0.583333
vt 0.708333 0.583333
vt 0.791667 0.666667
vt 0.708333 0.666667
vt 0.375000 0.166667
vt 0.625000 0.166667
vt 0.625000 0.250000
vt 0.375000 0.250000
vt 0.625000 0.500000
vt 0.375000 0.500000
vt 0.375000 0.666667
vt 0.625000 0.666667
vt 0.625000 0.750000
vt 0.375000 0.750000
vt 0.625000 1.000000
vt 0.375000 1.000000
vt 0.125000 0.666667
vt 0.125000 0.750000
vt 0.875000 0.666667
vt 0.875000 0.750000
vt 0.875000 0.500000
vt 0.875000 0.583333
vt 0.625000 0.583333
vt 0.140862 0.567472
vt 0.140862 0.515862
vt 0.140862 0.515862
vt 0.140862 0.567472
vt 0.125000 0.583333
vt 0.375000 0.583333
vt 0.375000 0.000000
vt 0.625000 0.000000
vt 0.625000 0.083333
vt 0.375000 0.083333
vt 0.359138 0.515862
vt 0.125000 0.500000
vt 0.359138 0.567472
vt 0.359138 0.515862
vt 0.359138 0.567472
vt 0.359138 0.567472
vt 0.359138 0.515862
vt 0.140862 0.567472
vt 0.140862 0.515862
vt 0.140862 0.515862
vt 0.140862 0.567472
vt 0.140862 0.515862
vt 0.140862 0.567472
vt 0.359138 0.515862
vt 0.359138 0.567472
vt 0.359138 0.567472
vt 0.140862 0.567472
vt 0.359138 0.567472
vt 0.359138 0.515862
vt 0.140862 0.515862
vt 0.359138 0.515862
vn -0.0000 -1.0000 0.0000
vn -1.0000 0.0000 0.0000
vn 0.0000 1.0000 -0.0000
vn 1.0000 -0.0000 -0.0000
vn -0.0000 -0.0000 -1.0000
vn -0.0000 0.0000 1.0000
vn -0.9972 -0.0000 0.0753
vn -0.9994 0.0000 0.0342
vn 0.9994 -0.0000 0.0342
vn -0.9907 -0.0001 0.1362
vn 0.0006 0.9998 0.0208
vn 0.9981 0.0000 -0.0619
vn 0.0006 -0.9998 0.0198
vn 0.9852 0.0003 -0.1712
vn 0.0022 1.0000 0.0094
vn 0.9950 0.0001 -0.0997
vn 0.0020 -1.0000 0.0076
vn -0.9401 -0.0014 0.3408
vn 0.0080 -0.9999 0.0095
vn -0.9771 -0.0005 0.2128
vn 0.0095 0.9999 0.0136
vn 0.4658 -0.0120 0.8848
vn 0.0134 0.9998 0.0176
vn 0.9526 0.0011 -0.3041
vn 0.0124 -0.9998 0.0152
vn -0.9962 0.0000 0.0872
vn 0.9962 -0.0000 -0.0872
vn -0.0872 0.0000 -0.9962
vn 0.0872 -0.0000 0.9962
vn 0.0027 -0.0000 -1.0000
vn -0.1105 0.0742 -0.9911
vn -0.1105 -0.0742 -0.9911
vn -0.0617 0.0000 -0.9981
vn -0.9990 0.0000 -0.0457
vn 0.9989 -0.0000 0.0474
vn -0.9212 0.0000 -0.3892
vn 0.9342 -0.0000 0.3566
vn -0.7618 0.0000 -0.6478
vn 0.7797 -0.0000 0.6262
vn 0.0461 -0.0000 0.9989
vn -0.4307 0.0000 -0.9025
vn 0.4292 -0.0000 0.9032
vn 0.9988 -0.0000 0.0495
vn -0.0744 0.0000 -0.9972
usemtl None
s off
f 17/1/1 20/2/1 4/3/1 3/4/1
f 9/5/2 12/6/2 8/7/2 7/8/2
f 21/9/3 24/10/3 6/11/3 5/12/3
f 13/13/4 16/14/4 2/15/4 1/16/4
f 32/17/5 21/9/5 5/12/5 14/18/5
f 28/19/6 19/20/6 2/21/6 16/22/6
f 24/10/6 26/23/6 15/24/6 6/11/6
f 26/23/6 28/19/6 16/22/6 15/24/6
f 18/25/5 30/26/5 13/27/5 1/28/5
f 30/26/5 32/17/5 14/18/5 13/27/5
f 5/12/4 6/11/4 15/29/4 14/30/4
f 14/30/4 15/29/4 16/14/4 13/13/4
f 3/4/2 4/3/2 11/31/2 10/32/2
f 10/32/2 11/31/2 12/6/2 9/5/2
f 10/33/5 9/34/5 31/35/5 29/36/5
f 29/36/5 31/35/5 32/17/5 30/26/5
f 3/37/5 10/33/5 29/36/5 17/38/5
f 17/38/5 29/36/5 30/26/5 18/25/5
f 12/39/6 11/40/6 27/41/6 25/42/6
f 26/23/3 25/42/3 33/43/3 34/44/3
f 8/7/6 12/39/6 25/42/6 23/45/6
f 23/45/6 25/42/6 26/23/6 24/10/6
f 11/40/6 4/46/6 20/47/6 27/41/6
f 27/41/6 20/47/6 19/20/6 28/19/6
f 9/34/5 7/8/5 22/48/5 31/35/5
f 31/35/5 22/48/5 21/9/5 32/17/5
f 7/8/3 8/7/3 23/45/3 22/48/3
f 22/48/3 23/45/3 24/10/3 21/9/3
f 1/49/1 2/50/1 19/51/1 18/52/1
f 18/52/1 19/51/1 20/2/1 17/1/1
f 33/43/7 35/53/7 39/54/7 37/55/7
f 25/42/8 27/41/8 35/53/8 33/43/8
f 28/19/9 26/23/9 34/44/9 36/56/9
f 27/41/1 28/19/1 36/56/1 35/53/1
f 37/55/10 39/54/10 43/57/10 41/58/10
f 34/44/11 33/43/11 37/55/11 38/59/11
f 36/56/12 34/44/12 38/59/12 40/60/12
f 35/53/13 36/56/13 40/60/13 39/54/13
f 44/61/14 42/62/14 46/63/14 48/64/14
f 38/59/15 37/55/15 41/58/15 42/62/15
f 40/60/16 38/59/16 42/62/16 44/61/16
f 39/54/17 40/60/17 44/61/17 43/57/17
f 45/65/18 47/66/18 51/67/18 49/68/18
f 43/57/19 44/61/19 48/64/19 47/66/19
f 41/58/20 43/57/20 47/66/20 45/65/20
f 42/62/21 41/58/21 45/65/21 46/63/21
f 49/68/22 51/67/22 52/69/22 50/70/22
f 46/63/23 45/65/23 49/68/23 50/70/23
f 48/64/24 46/63/24 50/70/24 52/69/24
f 47/66/25 48/64/25 52/69/25 51/67/25
f 72/71/1 64/72/1 56/73/1 70/74/1
f 70/74/26 56/73/26 60/75/26 69/76/26
f 65/77/3 68/78/3 58/79/3 57/80/3
f 57/80/27 58/79/27 54/81/27 53/82/27
f 62/83/28 65/77/28 57/80/28 53/84/28
f 68/78/29 63/85/29 54/86/29 58/79/29
f 60/75/29 56/87/29 64/88/29 67/89/29
f 67/89/29 64/88/29 63/85/29 68/78/29
f 61/90/1 55/91/1 74/92/1 76/93/1
f 72/94/28 71/95/28 65/77/28 62/83/28
f 69/76/3 60/75/3 67/89/3 71/95/3
f 71/95/3 67/89/3 68/78/3 65/77/3
f 53/96/1 54/97/1 63/98/1 62/99/1
f 62/99/1 63/98/1 64/72/1 72/71/1
f 59/100/30 55/91/30 70/101/30 69/76/30
f 66/102/31 59/100/31 69/76/31 71/95/31
f 55/91/32 61/90/32 72/94/32 70/101/32
f 61/90/33 66/102/33 71/95/33 72/94/33
f 73/103/3 75/104/3 79/105/3 77/106/3
f 55/91/34 59/100/34 73/103/34 74/92/34
f 66/102/35 61/90/35 76/93/35 75/104/35
f 59/100/3 66/102/3 75/104/3 73/103/3
f 80/107/1 78/108/1 82/109/1 84/110/1
f 76/93/1 74/92/1 78/108/1 80/107/1
f 74/92/36 73/103/36 77/106/36 78/108/36
f 75/104/37 76/93/37 80/107/37 79/105/37
f 84/110/1 82/109/1 86/111/1 88/112/1
f 78/108/38 77/106/38 81/113/38 82/109/38
f 79/105/39 80/107/39 84/110/39 83/114/39
f 77/106/3 79/105/3 83/114/3 81/113/3
f 87/115/40 88/112/40 92/116/40 91/117/40
f 82/109/41 81/113/41 85/118/41 86/111/41
f 83/114/42 84/110/42 88/112/42 87/115/42
f 81/113/3 83/114/3 87/115/3 85/118/3
f 90/119/43 89/120/43 91/117/43 92/116/43
f 85/118/3 87/115/3 91/117/3 89/120/3
f 88/112/1 86/111/1 90/119/1 92/116/1
f 86/111/44 85/118/44 89/120/44 90/119/44
