# Blender v3.0.0 OBJ File: 'POCIĄG models.blend'
# www.blender.org
mtllib StickModel.mtl
o Cylinder.003
v 0.000000 -0.032656 -0.070000
v 0.000000 4.032657 -0.070000
v 0.049497 -0.032656 -0.049497
v 0.049497 4.032657 -0.049497
v 0.070000 -0.032656 0.000000
v 0.070000 4.032657 0.000000
v 0.049497 -0.032656 0.049497
v 0.049497 4.032657 0.049497
v -0.000000 -0.032656 0.070000
v -0.000000 4.032657 0.070000
v -0.049497 -0.032656 0.049497
v -0.049497 4.032657 0.049497
v -0.070000 -0.032656 -0.000000
v -0.070000 4.032657 -0.000000
v -0.049497 -0.032656 -0.049497
v -0.049497 4.032657 -0.049497
v 0.000000 0.200000 -0.070000
v 0.000000 3.800000 -0.070000
v 0.049497 3.800000 -0.049497
v 0.049497 0.200000 -0.049497
v 0.070000 3.800000 0.000000
v 0.070000 0.200000 0.000000
v 0.049497 3.800000 0.049497
v 0.049497 0.200000 0.049497
v -0.000000 3.800000 0.070000
v -0.000000 0.200000 0.070000
v -0.049497 3.800000 0.049497
v -0.049497 0.200000 0.049497
v -0.070000 3.800000 -0.000000
v -0.070000 0.200000 -0.000000
v -0.049497 3.800000 -0.049497
v -0.049497 0.200000 -0.049497
v 0.000000 0.000000 -0.091000
v 0.064347 0.000000 -0.064347
v 0.064347 4.000000 -0.064347
v 0.000000 4.000000 -0.091000
v 0.000000 3.800000 -0.091000
v 0.064347 0.200000 -0.064347
v 0.091000 0.000000 0.000000
v 0.091000 4.000000 0.000000
v 0.091000 0.200000 0.000000
v 0.064347 0.000000 0.064347
v 0.064347 4.000000 0.064347
v 0.064347 0.200000 0.064347
v -0.000000 0.000000 0.091000
v -0.000000 4.000000 0.091000
v -0.000000 0.200000 0.091000
v -0.064347 0.000000 0.064347
v -0.064347 4.000000 0.064347
v -0.064347 0.200000 0.064347
v -0.091000 0.000000 0.000000
v -0.091000 4.000000 0.000000
v -0.091000 0.200000 0.000000
v -0.064347 0.000000 -0.064347
v -0.064347 4.000000 -0.064347
v -0.064347 0.200000 -0.064347
v 0.000000 0.200000 -0.091000
v 0.064347 3.800000 -0.064347
v 0.091000 3.800000 0.000000
v 0.064347 3.800000 0.064347
v -0.000000 3.800000 0.091000
v -0.064347 3.800000 0.064347
v -0.091000 3.800000 0.000000
v -0.064347 3.800000 -0.064347
vt 0.080294 0.419706
vt 0.250000 0.490000
vt 0.250000 0.490000
vt 0.080294 0.419706
vt 0.500000 0.833333
vt 0.625000 0.833333
vt 0.625000 0.833333
vt 0.500000 0.833333
vt 0.750000 0.490000
vt 0.580294 0.419706
vt 0.580294 0.419706
vt 0.750000 0.490000
vt 0.490000 0.250000
vt 0.419706 0.080294
vt 0.419706 0.080294
vt 0.490000 0.250000
vt 0.625000 0.666667
vt 0.500000 0.666667
vt 0.500000 0.666667
vt 0.625000 0.666667
vt 0.919706 0.080294
vt 0.990000 0.250000
vt 0.990000 0.250000
vt 0.919706 0.080294
vt 0.419706 0.419706
vt 0.010000 0.250000
vt 0.080294 0.080294
vt 0.250000 0.010000
vt 0.375000 0.833333
vt 0.375000 0.833333
vt 0.010000 0.250000
vt 0.919706 0.419706
vt 0.750000 0.010000
vt 0.580294 0.080294
vt 0.510000 0.250000
vt 0.375000 0.666667
vt 0.375000 0.666667
vt 0.125000 0.666667
vt 0.125000 0.833333
vt 0.000000 0.833333
vt 0.000000 0.666667
vt 0.510000 0.250000
vt 0.250000 0.666667
vt 0.250000 0.833333
vt 0.419706 0.419706
vt 0.250000 0.833333
vt 0.919706 0.419706
vt 0.250000 0.666667
vt 0.750000 0.666667
vt 0.750000 0.833333
vt 0.080294 0.080294
vt 0.875000 0.666667
vt 0.875000 0.833333
vt 0.125000 0.833333
vt 1.000000 0.666667
vt 1.000000 0.833333
vt 1.000000 0.833333
vt 1.000000 1.000000
vt 0.875000 1.000000
vt 0.875000 0.833333
vt 0.750000 1.000000
vt 0.750000 0.833333
vt 0.625000 1.000000
vt 0.500000 1.000000
vt 0.375000 1.000000
vt 0.250000 1.000000
vt 0.125000 1.000000
vt 0.000000 1.000000
vt 0.000000 0.833333
vt 0.125000 0.500000
vt 0.125000 0.666667
vt 0.000000 0.666667
vt 0.000000 0.500000
vt 0.250000 0.500000
vt 0.375000 0.500000
vt 0.500000 0.500000
vt 0.625000 0.500000
vt 0.750000 0.500000
vt 0.750000 0.666667
vt 0.875000 0.500000
vt 0.875000 0.666667
vt 1.000000 0.500000
vt 1.000000 0.666667
vt 0.750000 0.010000
vt 0.250000 0.010000
vt 0.580294 0.080294
vn -0.3290 0.5108 -0.7943
vn 0.0000 -1.0000 0.0000
vn -0.3290 -0.5108 -0.7943
vn 0.7943 0.5108 0.3290
vn 0.0000 1.0000 0.0000
vn 0.7943 -0.5108 0.3290
vn -0.7943 0.5108 -0.3290
vn -0.3827 0.0000 -0.9239
vn -0.7943 -0.5108 -0.3290
vn -0.9239 0.0000 -0.3827
vn 0.7943 0.5108 -0.3290
vn -0.9239 0.0000 0.3827
vn -0.3827 0.0000 0.9239
vn 0.7943 -0.5108 -0.3290
vn 0.3827 0.0000 0.9239
vn 0.9239 0.0000 0.3827
vn -0.7943 0.5108 0.3290
vn 0.9239 0.0000 -0.3827
vn 0.3827 0.0000 -0.9239
vn 0.3290 -0.5108 0.7943
vn 0.3290 0.5108 0.7943
vn -0.3290 -0.5108 0.7943
vn 0.3290 -0.5108 -0.7943
vn -0.3290 0.5108 0.7943
vn 0.3290 0.5108 -0.7943
vn -0.7943 -0.5108 0.3290
usemtl None
s off
f 16/1/1 2/2/1 36/3/1 55/4/1
f 25/5/2 23/6/2 60/7/2 61/8/2
f 1/9/3 15/10/3 54/11/3 33/12/3
f 6/13/4 8/14/4 43/15/4 40/16/4
f 24/17/5 26/18/5 47/19/5 44/20/5
f 7/21/6 5/22/6 39/23/6 42/24/6
f 4/25/5 2/2/5 16/1/5 14/26/5 12/27/5 10/28/5 8/14/5 6/13/5
f 27/29/2 25/5/2 61/8/2 62/30/2
f 14/26/7 16/1/7 55/4/7 52/31/7
f 1/9/2 3/32/2 5/22/2 7/21/2 9/33/2 11/34/2 13/35/2 15/10/2
f 26/18/5 28/36/5 50/37/5 47/19/5
f 32/38/8 31/39/8 18/40/8 17/41/8
f 15/10/9 13/35/9 51/42/9 54/11/9
f 30/43/10 29/44/10 31/39/10 32/38/10
f 4/25/11 6/13/11 40/16/11 35/45/11
f 28/36/12 27/29/12 29/44/12 30/43/12
f 29/44/2 27/29/2 62/30/2 63/46/2
f 26/18/13 25/5/13 27/29/13 28/36/13
f 5/22/14 3/32/14 34/47/14 39/23/14
f 24/17/15 23/6/15 25/5/15 26/18/15
f 28/36/5 30/43/5 53/48/5 50/37/5
f 22/49/16 21/50/16 23/6/16 24/17/16
f 12/27/17 14/26/17 52/31/17 49/51/17
f 20/52/18 19/53/18 21/50/18 22/49/18
f 31/39/2 29/44/2 63/46/2 64/54/2
f 17/55/19 18/56/19 19/53/19 20/52/19
f 37/57/19 36/58/19 35/59/19 58/60/19
f 58/60/18 35/59/18 40/61/18 59/62/18
f 59/62/16 40/61/16 43/63/16 60/7/16
f 60/7/15 43/63/15 46/64/15 61/8/15
f 61/8/13 46/64/13 49/65/13 62/30/13
f 62/30/12 49/65/12 52/66/12 63/46/12
f 63/46/10 52/66/10 55/67/10 64/54/10
f 64/54/8 55/67/8 36/68/8 37/69/8
f 54/70/8 56/71/8 57/72/8 33/73/8
f 51/74/10 53/48/10 56/71/10 54/70/10
f 48/75/12 50/37/12 53/48/12 51/74/12
f 45/76/13 47/19/13 50/37/13 48/75/13
f 42/77/15 44/20/15 47/19/15 45/76/15
f 39/78/16 41/79/16 44/20/16 42/77/16
f 34/80/18 38/81/18 41/79/18 39/78/18
f 33/82/19 57/83/19 38/81/19 34/80/19
f 22/49/5 24/17/5 44/20/5 41/79/5
f 9/33/20 7/21/20 42/24/20 45/84/20
f 23/6/2 21/50/2 59/62/2 60/7/2
f 8/14/21 10/28/21 46/85/21 43/15/21
f 20/52/5 22/49/5 41/79/5 38/81/5
f 21/50/2 19/53/2 58/60/2 59/62/2
f 11/34/22 9/33/22 45/84/22 48/86/22
f 32/38/5 17/41/5 57/72/5 56/71/5
f 3/32/23 1/9/23 33/12/23 34/47/23
f 17/55/5 20/52/5 38/81/5 57/83/5
f 10/28/24 12/27/24 49/51/24 46/85/24
f 18/40/2 31/39/2 64/54/2 37/69/2
f 2/2/25 4/25/25 35/45/25 36/3/25
f 19/53/2 18/56/2 37/57/2 58/60/2
f 30/43/5 32/38/5 56/71/5 53/48/5
f 13/35/26 11/34/26 48/86/26 51/42/26
