# Blender v3.0.0 OBJ File: 'POCIĄG models.blend'
# www.blender.org
mtllib SickleModel.mtl
o Cylinder.002
v 0.000000 0.070000 -0.600000
v 0.049497 0.049497 -0.600000
v 0.070000 -0.000000 -0.600000
v 0.049497 -0.049498 -0.600000
v -0.000000 -0.070000 -0.600000
v -0.049497 -0.049498 -0.600000
v -0.070000 -0.000000 -0.600000
v -0.049497 0.049497 -0.600000
v 0.000000 0.070000 3.079094
v 0.049497 0.049497 3.079094
v 0.070000 -0.000000 3.079094
v 0.049497 -0.049498 3.079094
v -0.000000 -0.070000 3.079094
v -0.049497 -0.049498 3.079094
v -0.070000 -0.000000 3.079094
v -0.049497 0.049497 3.079094
v 0.029338 0.029338 3.200000
v 0.000000 0.041490 3.200000
v 0.000000 0.090010 3.079094
v 0.041490 -0.000000 3.200000
v 0.029338 -0.029338 3.200000
v -0.000000 -0.041490 3.200000
v -0.029338 -0.029338 3.200000
v -0.041490 -0.000000 3.200000
v -0.029338 0.029338 3.200000
v 0.063647 0.063646 3.079094
v 0.090010 -0.000000 3.079094
v 0.063647 -0.063647 3.079094
v -0.000000 -0.090010 3.079094
v -0.063647 -0.063647 3.079094
v -0.090010 -0.000000 3.079094
v -0.063647 0.063646 3.079094
v 0.063647 0.063646 3.200000
v 0.000000 0.090010 3.200000
v 0.090010 -0.000000 3.200000
v 0.063647 -0.063647 3.200000
v -0.000000 -0.090010 3.200000
v -0.063647 -0.063647 3.200000
v -0.090010 -0.000000 3.200000
v -0.063647 0.063646 3.200000
v 0.029338 0.029338 3.282532
v 0.000000 0.041490 3.282532
v 0.041490 -0.000000 3.282532
v 0.029338 -0.029338 3.282532
v -0.000000 -0.041490 3.282532
v -0.029338 -0.029338 3.282532
v -0.041490 -0.000000 3.282532
v -0.029338 0.029338 3.282532
v -0.000000 -0.204251 3.335552
v -0.000000 -0.100000 3.252329
v -0.000000 -0.069717 3.483541
v 0.000000 0.100000 3.252329
v -0.000000 -0.327174 3.504501
v -0.000000 -0.148148 3.593661
v -0.000000 -0.381210 3.718427
v -0.000000 -0.189490 3.775379
v -0.000000 -0.410377 4.030675
v -0.000000 -0.210485 4.024096
v -0.000000 -0.317017 4.349620
v -0.000000 -0.126513 4.288726
v -0.000000 -0.124365 4.547065
v -0.000000 -0.036562 4.441002
v -0.000000 0.131445 4.638391
v -0.000000 0.142129 4.618149
v -0.037107 -0.204251 3.335552
v -0.049000 -0.100000 3.252329
v -0.037106 -0.069717 3.483541
v -0.049000 0.100000 3.252329
v -0.037553 -0.327174 3.504501
v -0.037553 -0.148148 3.593661
v -0.036680 -0.381210 3.718427
v -0.036681 -0.189490 3.775379
v -0.031636 -0.410377 4.030675
v -0.031635 -0.210485 4.024096
v -0.024005 -0.317017 4.349620
v -0.024005 -0.126513 4.288726
v -0.015243 -0.124365 4.547065
v -0.015243 -0.036562 4.441002
v -0.001284 0.131445 4.638391
v -0.001284 0.142129 4.618149
v 0.037107 -0.204251 3.335552
v 0.049000 -0.100000 3.252329
v 0.037106 -0.069717 3.483541
v 0.049000 0.100000 3.252329
v 0.037553 -0.327174 3.504501
v 0.037553 -0.148148 3.593661
v 0.036680 -0.381210 3.718427
v 0.036681 -0.189490 3.775379
v 0.031636 -0.410377 4.030675
v 0.031635 -0.210485 4.024096
v 0.024005 -0.317017 4.349620
v 0.024005 -0.126513 4.288726
v 0.015243 -0.124365 4.547065
v 0.015243 -0.036562 4.441002
v 0.001284 0.131445 4.638391
v 0.001284 0.142129 4.618149
vt 0.875000 0.750000
vt 1.000000 0.750000
vt 1.000000 0.750000
vt 0.875000 0.750000
vt 0.000000 0.750000
vt 0.125000 0.750000
vt 0.125000 0.750000
vt 0.000000 0.750000
vt 0.250000 0.750000
vt 0.375000 0.750000
vt 0.375000 0.750000
vt 0.250000 0.750000
vt 0.500000 0.750000
vt 0.625000 0.750000
vt 0.625000 0.750000
vt 0.500000 0.750000
vt 0.750000 0.750000
vt 0.750000 0.750000
vt 0.750000 0.490000
vt 0.919706 0.419706
vt 0.990000 0.250000
vt 0.919706 0.080294
vt 0.750000 0.010000
vt 0.580294 0.080294
vt 0.510000 0.250000
vt 0.580294 0.419706
vt 0.125000 0.500000
vt 0.000000 0.500000
vt 0.250000 0.500000
vt 0.375000 0.500000
vt 0.500000 0.500000
vt 0.625000 0.500000
vt 0.750000 0.500000
vt 0.875000 0.500000
vt 1.000000 0.500000
vt 1.000000 1.000000
vt 0.875000 1.000000
vt 0.750000 1.000000
vt 0.625000 1.000000
vt 0.500000 1.000000
vt 0.375000 1.000000
vt 0.250000 1.000000
vt 0.108161 0.250000
vt 0.149705 0.149705
vt 0.149705 0.149705
vt 0.108161 0.250000
vt 0.125000 1.000000
vt 0.000000 1.000000
vt 0.250000 0.391839
vt 0.350295 0.350295
vt 0.419706 0.419706
vt 0.250000 0.490000
vt 0.391839 0.250000
vt 0.490000 0.250000
vt 0.350295 0.149705
vt 0.419706 0.080294
vt 0.250000 0.108161
vt 0.250000 0.010000
vt 0.080294 0.080294
vt 0.010000 0.250000
vt 0.149705 0.350295
vt 0.080294 0.419706
vt 0.350295 0.350295
vt 0.250000 0.391839
vt 0.149705 0.350295
vt 0.250000 0.108161
vt 0.350295 0.149705
vt 0.391839 0.250000
vt 0.000000 0.000000
vt 1.000000 0.000000
vt 1.000000 1.000000
vt 0.000000 1.000000
vt 0.000000 1.000000
vt 0.000000 0.000000
vt 0.000000 1.000000
vt 0.000000 0.000000
vt 0.000000 1.000000
vt 0.000000 0.000000
vt 0.000000 1.000000
vt 0.000000 0.000000
vt 0.000000 1.000000
vt 0.000000 0.000000
vt 0.000000 1.000000
vt 0.000000 0.000000
vt 0.000000 0.000000
vt 0.000000 1.000000
vt 1.000000 1.000000
vt 1.000000 0.000000
vt 0.000000 0.000000
vt 0.000000 1.000000
vt 0.000000 0.000000
vt 0.000000 1.000000
vt 0.000000 0.000000
vt 0.000000 1.000000
vt 0.000000 0.000000
vt 0.000000 1.000000
vt 0.000000 0.000000
vt 0.000000 1.000000
vt 0.000000 0.000000
vt 0.000000 1.000000
vt 0.000000 0.000000
vt 1.000000 0.000000
vt 1.000000 1.000000
vt 0.000000 1.000000
vt 0.000000 1.000000
vt 0.000000 0.000000
vt 0.000000 1.000000
vt 0.000000 0.000000
vt 0.000000 1.000000
vt 0.000000 0.000000
vt 0.000000 1.000000
vt 0.000000 0.000000
vt 0.000000 1.000000
vt 0.000000 0.000000
vt 0.000000 1.000000
vt 0.000000 0.000000
vn 0.0000 0.0000 -1.0000
vn -0.3827 0.9239 0.0000
vn -0.9239 0.3827 0.0000
vn -0.9239 -0.3827 -0.0000
vn -0.3827 -0.9239 -0.0000
vn 0.3827 -0.9239 -0.0000
vn 0.9239 -0.3827 -0.0000
vn 0.9239 0.3827 0.0000
vn 0.3827 0.9239 0.0000
vn 0.0000 0.0000 1.0000
vn 1.0000 -0.0000 0.0000
vn -0.9982 -0.0241 0.0545
vn -1.0000 0.0016 -0.0021
vn -1.0000 -0.0016 0.0040
vn -0.9998 -0.0023 0.0178
vn -0.9997 0.0043 0.0248
vn -0.9992 0.0202 0.0337
vn -0.9985 0.0433 0.0338
vn 0.0000 -0.6239 -0.7815
vn 0.0000 0.8061 0.5917
vn 0.0000 -0.8086 -0.5883
vn 0.0000 0.8145 0.5801
vn 0.0000 -0.9695 -0.2449
vn 0.0000 0.9751 0.2218
vn 0.0000 -0.9957 -0.0930
vn 0.0000 0.9965 0.0841
vn 0.0000 -0.9597 0.2809
vn 0.0000 0.9532 -0.3025
vn 0.0000 -0.7157 0.6984
vn 0.0000 0.8610 -0.5086
vn 0.0000 0.8844 0.4668
vn 0.0000 -0.3362 0.9418
vn 0.0000 0.7040 -0.7102
vn 0.9982 -0.0241 0.0545
vn 1.0000 0.0016 -0.0021
vn 1.0000 -0.0016 0.0040
vn 0.9998 -0.0023 0.0178
vn 0.9997 0.0043 0.0248
vn 0.9992 0.0202 0.0337
vn 0.9985 0.0433 0.0338
usemtl None
s off
f 10/1/1 9/2/1 19/3/1 26/4/1
f 9/5/1 16/6/1 32/7/1 19/8/1
f 15/9/1 14/10/1 30/11/1 31/12/1
f 13/13/1 12/14/1 28/15/1 29/16/1
f 11/17/1 10/1/1 26/4/1 27/18/1
f 16/6/1 15/9/1 31/12/1 32/7/1
f 14/10/1 13/13/1 29/16/1 30/11/1
f 12/14/1 11/17/1 27/18/1 28/15/1
f 1/19/1 2/20/1 3/21/1 4/22/1 5/23/1 6/24/1 7/25/1 8/26/1
f 8/27/2 16/6/2 9/5/2 1/28/2
f 7/29/3 15/9/3 16/6/3 8/27/3
f 6/30/4 14/10/4 15/9/4 7/29/4
f 5/31/5 13/13/5 14/10/5 6/30/5
f 4/32/6 12/14/6 13/13/6 5/31/6
f 3/33/7 11/17/7 12/14/7 4/32/7
f 2/34/8 10/1/8 11/17/8 3/33/8
f 1/35/9 9/2/9 10/1/9 2/34/9
f 19/3/9 34/36/9 33/37/9 26/4/9
f 26/4/8 33/37/8 35/38/8 27/18/8
f 27/18/7 35/38/7 36/39/7 28/15/7
f 28/15/6 36/39/6 37/40/6 29/16/6
f 29/16/5 37/40/5 38/41/5 30/11/5
f 30/11/4 38/41/4 39/42/4 31/12/4
f 24/43/4 23/44/4 46/45/4 47/46/4
f 31/12/3 39/42/3 40/47/3 32/7/3
f 32/7/2 40/47/2 34/48/2 19/8/2
f 18/49/10 17/50/10 33/51/10 34/52/10
f 17/50/10 20/53/10 35/54/10 33/51/10
f 20/53/10 21/55/10 36/56/10 35/54/10
f 21/55/10 22/57/10 37/58/10 36/56/10
f 22/57/10 23/44/10 38/59/10 37/58/10
f 23/44/10 24/43/10 39/60/10 38/59/10
f 24/43/10 25/61/10 40/62/10 39/60/10
f 25/61/10 18/49/10 34/52/10 40/62/10
f 41/63/10 42/64/10 48/65/10 47/46/10 46/45/10 45/66/10 44/67/10 43/68/10
f 22/57/6 21/55/6 44/67/6 45/66/6
f 20/53/8 17/50/8 41/63/8 43/68/8
f 25/61/3 24/43/3 47/46/3 48/65/3
f 23/44/5 22/57/5 45/66/5 46/45/5
f 21/55/7 20/53/7 43/68/7 44/67/7
f 17/50/9 18/49/9 42/64/9 41/63/9
f 18/49/2 25/61/2 48/65/2 42/64/2
f 49/69/11 50/70/11 52/71/11 51/72/11
f 49/69/11 51/72/11 54/73/11 53/74/11
f 53/74/11 54/73/11 56/75/11 55/76/11
f 55/76/11 56/75/11 58/77/11 57/78/11
f 57/78/11 58/77/11 60/79/11 59/80/11
f 59/80/11 60/79/11 62/81/11 61/82/11
f 61/82/11 62/81/11 64/83/11 63/84/11
f 65/85/12 67/86/12 68/87/12 66/88/12
f 65/85/13 69/89/13 70/90/13 67/86/13
f 69/89/14 71/91/14 72/92/14 70/90/14
f 71/91/15 73/93/15 74/94/15 72/92/15
f 73/93/16 75/95/16 76/96/16 74/94/16
f 75/95/17 77/97/17 78/98/17 76/96/17
f 77/97/18 79/99/18 80/100/18 78/98/18
f 50/70/19 49/69/19 65/85/19 66/88/19
f 52/71/1 50/70/1 66/88/1 68/87/1
f 51/72/20 52/71/20 68/87/20 67/86/20
f 49/69/21 53/74/21 69/89/21 65/85/21
f 54/73/22 51/72/22 67/86/22 70/90/22
f 53/74/23 55/76/23 71/91/23 69/89/23
f 56/75/24 54/73/24 70/90/24 72/92/24
f 55/76/25 57/78/25 73/93/25 71/91/25
f 58/77/26 56/75/26 72/92/26 74/94/26
f 57/78/27 59/80/27 75/95/27 73/93/27
f 60/79/28 58/77/28 74/94/28 76/96/28
f 59/80/29 61/82/29 77/97/29 75/95/29
f 62/81/30 60/79/30 76/96/30 78/98/30
f 63/84/31 64/83/31 80/100/31 79/99/31
f 61/82/32 63/84/32 79/99/32 77/97/32
f 64/83/33 62/81/33 78/98/33 80/100/33
f 81/101/34 82/102/34 84/103/34 83/104/34
f 81/101/35 83/104/35 86/105/35 85/106/35
f 85/106/36 86/105/36 88/107/36 87/108/36
f 87/108/37 88/107/37 90/109/37 89/110/37
f 89/110/38 90/109/38 92/111/38 91/112/38
f 91/112/39 92/111/39 94/113/39 93/114/39
f 93/114/40 94/113/40 96/115/40 95/116/40
f 50/70/19 82/102/19 81/101/19 49/69/19
f 52/71/1 84/103/1 82/102/1 50/70/1
f 51/72/20 83/104/20 84/103/20 52/71/20
f 49/69/21 81/101/21 85/106/21 53/74/21
f 54/73/22 86/105/22 83/104/22 51/72/22
f 53/74/23 85/106/23 87/108/23 55/76/23
f 56/75/24 88/107/24 86/105/24 54/73/24
f 55/76/25 87/108/25 89/110/25 57/78/25
f 58/77/26 90/109/26 88/107/26 56/75/26
f 57/78/27 89/110/27 91/112/27 59/80/27
f 60/79/28 92/111/28 90/109/28 58/77/28
f 59/80/29 91/112/29 93/114/29 61/82/29
f 62/81/30 94/113/30 92/111/30 60/79/30
f 63/84/31 95/116/31 96/115/31 64/83/31
f 61/82/32 93/114/32 95/116/32 63/84/32
f 64/83/33 96/115/33 94/113/33 62/81/33
